<svg width="277" height="200" viewBox="0 0 277 200" fill="none" xmlns="http://www.w3.org/2000/svg">
<path d="M0.184814 99.72C0.184814 57.6412 34.2965 23.5295 76.3753 23.5295H199.994C242.073 23.5295 276.185 57.6412 276.185 99.72V123.529C276.185 165.608 242.073 199.72 199.994 199.72H76.3753C34.2965 199.72 0.184814 165.608 0.184814 123.53V99.72Z" fill="#EEEEEF"/>
<mask id="mask0_36_3535" style="mask-type:alpha" maskUnits="userSpaceOnUse" x="0" y="-1" width="277" height="201">
<rect x="0.184814" y="-0.280029" width="276" height="200" rx="76.1905" fill="#FFB21D"/>
</mask>
<g mask="url(#mask0_36_3535)">
<path d="M62.0013 233.898L63.1895 212.098C51.9289 197.073 48.4904 153.777 48.1497 133.221L60.813 105.871L86.5591 95.1693C100.29 92.659 131.556 87.8761 146.766 88.8274C161.976 89.7787 173.964 99.7936 178.057 104.682C185.847 113.27 205.15 131.714 220.043 136.788C238.66 143.13 228.361 171.272 227.173 174.839C226.222 177.693 203.275 196.375 191.92 205.36L117.058 227.556L111.513 239.051L115.078 240.636C127.436 245.393 137.391 244.204 140.824 243.015L143.597 257.284C131.054 254.509 102.878 250.07 90.5201 254.509C78.1619 258.949 70.5833 271.95 68.3388 277.895L65.5661 278.291C61.4731 273.403 52.7326 261.644 50.5145 253.717C48.2964 245.789 57.2481 237.201 62.0013 233.898Z" fill="white"/>
<path d="M147.162 99.9256C149.063 96.7547 155.348 93.0552 158.253 91.6019C158.253 92.791 161.269 94.4379 163.798 86.8455C170.928 65.4416 170.532 45.6232 166.967 36.1103L157.461 28.9757L126.961 40.074L79.8259 95.9619C84.315 102.304 94.0061 116.256 96.858 121.33C99.7099 126.403 99.1025 140.884 98.4424 147.49L140.032 146.301L142.805 123.708L142.409 106.268C143.201 105.475 145.261 103.097 147.162 99.9256Z" fill="#D4D4D4"/>
<path d="M142.421 106.818C139.639 108.264 135.222 108.95 130.13 105.475C132.11 106.928 134.645 110.548 128.941 113.402C121.812 116.97 104.384 116.177 115.078 90.0165C117.587 93.7159 123.238 101.432 125.773 102.7C122.076 99.9257 114.286 90.0957 112.702 72.9726C111.117 55.8495 109.401 61.6101 108.741 66.6307L82.1934 99.3268C86.7187 105.791 93.3003 115.369 96.1991 120.2C107.332 117.509 122.147 114.72 128.941 116.177C137.492 118.01 139.215 136.335 134.837 146.449L140.032 146.301L142.805 123.708L142.421 106.818Z" fill="#999999"/>
<path d="M137.259 40.074C154.688 34.3663 165.91 46.4159 169.343 53.1542C170.928 40.7875 167.363 34.7891 165.382 33.3357L151.519 26.2011C139.504 33.2036 119.831 45.7817 137.259 40.074Z" fill="#BE693B"/>
<ellipse cx="4.21672" cy="1.13356" rx="4.21672" ry="1.13356" transform="matrix(0.932234 0.361856 -0.361422 0.932402 130.292 79.0583)" fill="#B2B2B2"/>
<ellipse cx="4.2164" cy="1.13364" rx="4.2164" ry="1.13364" transform="matrix(0.988734 0.149684 -0.149482 0.988764 155.1 84.9487)" fill="#B2B2B2"/>
<path d="M150.331 72.1799C150.067 74.1618 149.935 78.8389 151.519 81.6928C153.5 85.2601 155.084 90.413 144.785 88.0348" stroke="#232323" stroke-width="1.99448" stroke-linecap="round"/>
<path d="M133.695 91.6019L136.463 91.7428C139.563 91.9007 142.603 92.6642 145.411 93.9902L148.746 95.5656" stroke="#232323" stroke-width="1.99448" stroke-linecap="round"/>
<path d="M136.976 61.9153C133.389 62.6676 130.989 64.0558 129.589 65.2296C129.037 65.6925 129.479 66.3723 130.181 66.2131C135.755 64.95 143.984 64.1029 148.545 63.7512C149.081 63.7098 149.426 63.1535 149.13 62.7037C147.215 59.7873 143.072 60.6368 136.976 61.9153Z" fill="#232323"/>
<path d="M120.607 53.7403C123.142 49.301 138.695 43.8311 149.125 41.8492C184.378 48.9839 154.782 98.9853 149.236 97.7962L158.236 100.115C159.952 98.1335 163.702 93.06 164.969 88.6207C166.554 83.0715 168.534 73.1623 169.723 56.9112C170.911 40.6601 170.515 38.6783 162.593 23.2199C156.255 10.8532 146.221 9.08281 141.996 9.74343C132.093 4.59064 113.873 10.5362 101.99 37.0928C90.1074 63.6495 59.212 100.115 46.1408 127.861C39.7354 141.458 32.7205 179.335 52.0723 184.431C51.016 181.525 48.3243 163.469 48.9581 150.151C49.7502 133.504 58.0236 114.385 65.9455 106.457C73.8675 98.5299 92.0878 105.268 100.406 98.9263C108.724 92.5844 117.438 59.2895 120.607 53.7403Z" fill="#232323" stroke="#232323" stroke-width="1.99448" stroke-linecap="round"/>
<path d="M163.179 64.4839C166.369 65.5046 167.68 66.3859 168.095 66.8968C168.243 67.0794 168.151 67.3132 167.973 67.4661L165.459 69.6147C165.156 69.874 164.701 69.8614 164.403 69.5958C156.716 62.745 156.742 65.9274 156.175 64.2892C155.706 62.9391 158.118 62.864 163.179 64.4839Z" fill="#232323"/>
<ellipse cx="138.448" cy="72.1799" rx="4.75314" ry="4.75642" fill="white"/>
<ellipse cx="138.844" cy="73.3691" rx="3.56485" ry="3.56731" fill="#232323"/>
<ellipse cx="159.045" cy="74.5582" rx="4.75314" ry="4.75642" fill="white"/>
<ellipse cx="159.441" cy="75.7472" rx="3.56485" ry="3.56731" fill="#232323"/>
<path fill-rule="evenodd" clip-rule="evenodd" d="M225.412 109.476C226.052 106.39 223.705 103.491 220.553 103.476L144.896 103.117C142.426 103.105 140.32 104.904 139.944 107.346L135.976 133.155C135.516 136.151 132.512 138.046 129.61 137.172L101.237 128.623C99.8527 128.206 98.3561 128.41 97.1343 129.183L82.4575 138.459C78.9803 140.656 79.5098 145.882 83.3571 147.337L105.252 155.62C106.974 156.272 108.197 157.819 108.432 159.645L116.614 223.005C116.95 225.606 119.244 227.503 121.862 227.343L195.78 222.837C196.276 222.807 196.764 222.703 197.229 222.529L225.584 211.888C227.74 211.079 229.061 208.9 228.782 206.614L220.158 136.072C220.092 135.533 220.114 134.986 220.225 134.454L225.412 109.476Z" fill="#D8D8D8"/>
<path d="M198.021 151.378C197.623 148.209 194.893 145.854 191.7 145.925L171.628 146.373C167.701 146.46 164.833 150.115 165.68 153.95L172.905 186.675C173.707 190.304 178.736 190.668 180.053 187.192L182.969 179.497C184.073 176.585 188.044 176.217 189.661 178.878L195.467 188.428C197.561 191.874 202.875 190.019 202.372 186.017L198.021 151.378Z" fill="white"/>
<path d="M182.291 153.485C182.655 151.983 184.728 151.825 185.315 153.253L186.752 156.746C187.014 157.385 187.659 157.782 188.348 157.73L192.114 157.442C193.653 157.324 194.444 159.245 193.268 160.246L190.389 162.696C189.863 163.143 189.685 163.878 189.947 164.517L191.385 168.012C191.972 169.441 190.388 170.787 189.074 169.976L185.86 167.996C185.272 167.633 184.517 167.691 183.99 168.139L181.115 170.585C179.938 171.586 178.168 170.497 178.532 168.995L179.423 165.321C179.585 164.65 179.297 163.951 178.71 163.589L175.492 161.605C174.177 160.795 174.667 158.776 176.207 158.658L179.973 158.37C180.662 158.317 181.239 157.827 181.401 157.155L182.291 153.485Z" fill="#D8D8D8"/>
<path fill-rule="evenodd" clip-rule="evenodd" d="M101.237 128.623C99.8527 128.206 98.3561 128.41 97.1343 129.183L82.4575 138.459C78.9803 140.656 79.5097 145.882 83.3571 147.337L105.252 155.62C106.974 156.272 108.197 157.819 108.432 159.645L116.966 225.732C117.104 226.798 118.044 227.576 119.117 227.51C119.306 227.499 119.492 227.461 119.67 227.399L141.459 219.751C143.64 218.986 145.009 216.821 144.766 214.522L137.157 142.634C136.946 140.638 135.558 138.964 133.637 138.385L101.237 128.623Z" fill="#B2B2B2"/>
<path fill-rule="evenodd" clip-rule="evenodd" d="M101.237 128.623C99.8527 128.206 98.3561 128.41 97.1343 129.183L82.4575 138.459C78.9803 140.656 79.5097 145.882 83.3571 147.337L107.673 156.536C107.905 156.624 108.069 156.832 108.101 157.078C108.162 157.554 108.69 157.813 109.105 157.571L136.199 141.729C136.7 141.437 136.98 140.877 136.916 140.301C136.851 139.718 136.444 139.231 135.883 139.062L101.237 128.623Z" fill="#D8D8D8"/>
<path d="M177.587 128.706C190.251 119.98 164.978 138.225 177.443 120.553C207.34 78.1706 208.586 -32.1489 109.553 13.3501" stroke="#D9D9D9" stroke-width="1.99448" stroke-linecap="round" stroke-dasharray="9.97 9.97"/>
<path d="M225.411 109.476C226.052 106.39 223.705 103.491 220.553 103.476L144.896 103.117C142.426 103.105 140.32 104.904 139.944 107.346L135.195 138.236C135.147 138.548 134.834 138.746 134.532 138.655C134.123 138.531 133.748 138.927 133.893 139.329L134.501 141.005C134.713 141.59 135.283 141.968 135.905 141.935L136.978 141.878C136.983 141.878 136.987 141.878 136.992 141.88L137.027 141.89C137.032 141.892 137.038 141.888 137.039 141.882C137.04 141.878 137.043 141.874 137.048 141.874L218.426 137.535C219.453 137.481 220.218 136.568 220.093 135.548C220.07 135.355 220.078 135.161 220.117 134.971L225.411 109.476Z" fill="#B2B2B2"/>
<path d="M219.94 136.808L229.906 209.731" stroke="#232323" stroke-width="1.99448" stroke-linecap="round"/>
<path d="M127.357 91.9983C128.836 91.505 131.471 90.1803 130.18 88.8273" stroke="#232323" stroke-width="1.99448" stroke-linecap="round"/>
<path d="M113.098 71.7836C112.438 79.4467 115.078 97.0719 130.922 106.268" stroke="#232323" stroke-width="1.99448" stroke-linecap="round"/>
<path d="M70.4573 114.37L73.7561 145.731C74.8747 156.365 77.2564 166.828 80.8506 176.899L91.0112 205.368" stroke="#232323" stroke-width="1.99448" stroke-linecap="round"/>
</g>
<path d="M102.994 75.6871L91.1223 75.5701" stroke="white" stroke-width="1.90476" stroke-linecap="round"/>
<path d="M104.95 70.1544L93.8116 65.8665" stroke="white" stroke-width="1.90476" stroke-linecap="round"/>
<path d="M107.515 64.5972L99.1988 55.9475" stroke="white" stroke-width="1.90476" stroke-linecap="round"/>
<path d="M97.7366 129.421C98.9199 128.424 102.588 126.907 107.795 128.823C113.002 130.738 129.293 137.203 136.787 140.196C136.985 128.823 138.681 105.717 143.888 104.28C149.094 102.844 189.841 103.283 209.564 103.682" stroke="#232323" stroke-width="1.90476" stroke-linecap="round"/>
<ellipse cx="5.3566" cy="2.37955" rx="5.3566" ry="2.37955" transform="matrix(-0.384834 -0.922986 0.922797 -0.385286 107.003 27.7931)" fill="#D9D9D9"/>
<ellipse cx="5.3566" cy="2.37955" rx="5.3566" ry="2.37955" transform="matrix(-0.384834 -0.922986 0.922797 -0.385286 101.048 13.5102)" fill="#D9D9D9"/>
<ellipse cx="3.57106" cy="5.354" rx="3.57106" ry="5.354" transform="matrix(-0.384834 -0.922986 0.922797 -0.385286 100.044 20.3788)" fill="#232323"/>
</svg>
