<svg width="715" height="515" viewBox="0 0 715 515" fill="none" xmlns="http://www.w3.org/2000/svg">
<g clip-path="url(#clip0_1_234)">
<path d="M555 385.572C555 386.804 554.757 388.023 554.285 389.161C553.814 390.299 553.122 391.333 552.251 392.203C551.379 393.074 550.345 393.765 549.206 394.236C548.067 394.707 546.847 394.95 545.615 394.95H163.717C161.228 394.95 158.841 393.962 157.081 392.203C155.321 390.445 154.333 388.06 154.333 385.572C154.332 384.341 154.575 383.121 155.047 381.984C155.518 380.846 156.21 379.812 157.081 378.941C157.953 378.07 158.987 377.38 160.126 376.908C161.265 376.437 162.485 376.194 163.717 376.194H545.615C546.847 376.194 548.068 376.437 549.206 376.908C550.345 377.379 551.379 378.07 552.251 378.941C553.122 379.812 553.814 380.846 554.285 381.984C554.757 383.121 555 384.341 555 385.572Z" fill="#A5C5E8"/>
<path d="M328.215 141.808L346.064 137.39C346.064 137.39 350.156 140.329 346.647 144.693C346.444 144.946 328.215 141.808 328.215 141.808Z" fill="#5786C5"/>
<path d="M328.215 141.808L346.064 137.39C346.064 137.39 350.156 140.329 346.647 144.693C346.444 144.946 328.215 141.808 328.215 141.808Z" stroke="#2861A4" stroke-width="1.19242" stroke-miterlimit="10"/>
<path d="M325.993 131.878L337.789 117.782C337.789 117.782 342.828 117.739 342.575 123.331C342.559 123.655 325.993 131.878 325.993 131.878Z" fill="#5786C5"/>
<path d="M325.993 131.878L337.789 117.782C337.789 117.782 342.828 117.739 342.575 123.331C342.559 123.655 325.993 131.878 325.993 131.878Z" stroke="#2861A4" stroke-width="1.19242" stroke-miterlimit="10"/>
<path d="M318.763 132.749L313.374 115.182C313.374 115.182 316.087 110.938 320.639 114.201C320.903 114.39 318.763 132.749 318.763 132.749Z" fill="#5786C5"/>
<path d="M318.763 132.749L313.374 115.182C313.374 115.182 316.087 110.938 320.639 114.201C320.903 114.39 318.763 132.749 318.763 132.749Z" stroke="#2861A4" stroke-width="1.19242" stroke-miterlimit="10"/>
<path d="M352.486 368.037L336.358 369.299C336.358 369.299 333.23 366.159 336.905 362.877C337.118 362.687 352.486 368.037 352.486 368.037Z" fill="#5786C5"/>
<path d="M352.486 368.037L336.358 369.299C336.358 369.299 333.23 366.159 336.905 362.877C337.118 362.687 352.486 368.037 352.486 368.037Z" stroke="#2861A4" stroke-width="1.19242" stroke-miterlimit="10"/>
<path d="M352.982 376.975L340.71 387.51C340.71 387.51 336.331 386.821 337.357 382.003C337.417 381.725 352.982 376.975 352.982 376.975Z" fill="#5786C5"/>
<path d="M352.982 376.975L340.71 387.51C340.71 387.51 336.331 386.821 337.357 382.003C337.417 381.725 352.982 376.975 352.982 376.975Z" stroke="#2861A4" stroke-width="1.19242" stroke-miterlimit="10"/>
<path d="M359.382 377.26L361.524 393.284C361.524 393.284 358.558 396.576 355.077 393.088C354.875 392.886 359.382 377.26 359.382 377.26Z" fill="#5786C5"/>
<path d="M359.382 377.26L361.524 393.284C361.524 393.284 358.558 396.576 355.077 393.088C354.875 392.886 359.382 377.26 359.382 377.26Z" stroke="#2861A4" stroke-width="1.19242" stroke-miterlimit="10"/>
<path d="M280.008 293.599H277.585L276.576 299.765H273.581L274.59 293.599H271.249V290.847H275.041L275.703 286.876H272.377V284.124H276.155L277.194 277.868H280.173L279.15 284.124H281.573L282.612 277.868H285.607L284.568 284.124H288.045V286.876H284.117L283.454 290.847H286.901V293.599H283.003L281.995 299.765H278.999L280.008 293.599ZM278.036 290.847H280.459L281.121 286.876H278.698L278.036 290.847Z" fill="#A5C5E8"/>
<path d="M229.653 381.002C228.385 380.988 227.173 380.478 226.276 379.582C225.38 378.686 224.869 377.475 224.855 376.208V358.095H168.877C167.609 358.081 166.397 357.571 165.501 356.675C164.604 355.779 164.094 354.568 164.079 353.301V334.478C164.079 331.401 164.849 328.856 166.389 326.843L219.523 259.898C220.59 258.597 221.567 257.738 222.456 257.323C223.344 256.91 224.558 256.703 226.099 256.702H252.932C254.2 256.716 255.412 257.226 256.309 258.122C257.205 259.018 257.715 260.229 257.73 261.496V329.684H273.013C274.281 329.699 275.493 330.209 276.389 331.105C277.286 332.001 277.796 333.211 277.811 334.478V353.301C277.796 354.568 277.286 355.779 276.389 356.675C275.493 357.571 274.281 358.08 273.013 358.095H257.73V376.208C257.715 377.475 257.205 378.685 256.309 379.581C255.412 380.477 254.2 380.987 252.932 381.002H229.653ZM225.743 329.684V297.011L199.798 329.684H225.743Z" fill="#A5C5E8"/>
<path d="M365.2 200.825C374.085 200.825 381.727 202.128 388.124 204.732C394.522 207.338 399.823 210.83 404.029 215.209C408.236 219.593 411.448 224.832 413.448 230.569C415.532 236.49 416.759 242.679 417.09 248.947C417.327 254.039 417.445 259.366 417.446 264.929C417.446 270.495 417.328 275.704 417.09 280.555C416.759 286.824 415.532 293.013 413.448 298.934C411.449 304.671 408.237 309.91 404.029 314.294C399.822 318.675 394.521 322.168 388.124 324.771C381.727 327.373 374.086 328.676 365.2 328.677C356.315 328.677 348.673 327.375 342.276 324.771C335.879 322.168 330.577 318.676 326.371 314.294C322.162 309.911 318.949 304.672 316.953 298.934C314.867 293.013 313.64 286.824 313.31 280.555C313.071 275.703 312.953 270.494 312.955 264.929C312.955 259.366 313.073 254.039 313.31 248.947C313.64 242.679 314.867 236.49 316.953 230.569C318.95 224.831 322.163 219.592 326.371 215.209C330.575 210.83 335.877 207.338 342.276 204.732C348.674 202.129 356.315 200.827 365.2 200.825ZM384.215 279.667C384.687 269.607 384.687 259.663 384.215 249.835C384.01 247.079 383.564 244.346 382.882 241.667C382.296 239.318 381.238 237.113 379.772 235.186C378.267 233.287 376.313 231.792 374.085 230.835C371.715 229.77 368.753 229.237 365.2 229.237C361.646 229.237 358.684 229.77 356.315 230.835C354.087 231.791 352.133 233.286 350.628 235.186C349.157 237.122 348.071 239.322 347.429 241.667C346.691 244.331 346.273 247.073 346.185 249.835C345.592 259.771 345.592 269.732 346.185 279.667C346.274 282.424 346.661 285.163 347.341 287.836C347.93 290.2 349.021 292.411 350.539 294.317C352.09 296.207 354.07 297.699 356.315 298.668C358.684 299.733 361.645 300.266 365.2 300.266C368.755 300.266 371.716 299.733 374.085 298.668C376.329 297.697 378.309 296.206 379.861 294.317C381.377 292.409 382.468 290.199 383.06 287.836C383.737 285.162 384.124 282.424 384.215 279.667Z" fill="#A5C5E8"/>
<path d="M503.367 243.046C502.099 243.031 500.888 242.521 499.991 241.625C499.095 240.729 498.584 239.518 498.569 238.252V220.139H442.592C441.324 220.124 440.112 219.615 439.215 218.719C438.319 217.823 437.808 216.612 437.794 215.345V196.522C437.794 193.445 438.564 190.9 440.104 188.886L493.238 121.942C494.304 120.641 495.282 119.782 496.17 119.367C497.059 118.954 498.273 118.747 499.813 118.745H526.647C527.915 118.76 529.127 119.27 530.024 120.166C530.92 121.062 531.43 122.273 531.445 123.54V191.728H546.728C547.996 191.742 549.207 192.252 550.104 193.148C551.001 194.044 551.511 195.255 551.526 196.522V215.345C551.511 216.612 551.001 217.823 550.104 218.719C549.207 219.614 547.996 220.124 546.728 220.139H531.445V238.252C531.43 239.518 530.92 240.729 530.024 241.625C529.127 242.521 527.915 243.031 526.647 243.046H503.367ZM499.458 191.728V159.055L473.513 191.728H499.458Z" fill="#A5C5E8"/>
<path d="M226.516 367.669C225.248 367.655 224.037 367.145 223.14 366.249C222.243 365.353 221.733 364.142 221.718 362.875V344.763H165.741C164.473 344.748 163.261 344.238 162.364 343.342C161.468 342.446 160.957 341.235 160.943 339.968V321.146C160.943 318.069 161.713 315.524 163.253 313.51L216.387 246.566C217.453 245.264 218.43 244.406 219.319 243.991C220.207 243.577 221.422 243.37 222.962 243.369H249.796C251.064 243.384 252.276 243.893 253.172 244.789C254.069 245.685 254.579 246.896 254.594 248.163V316.351H269.877C271.145 316.366 272.357 316.876 273.253 317.772C274.15 318.668 274.66 319.879 274.675 321.146V339.968C274.66 341.235 274.15 342.446 273.253 343.342C272.357 344.238 271.145 344.748 269.877 344.763H254.594V362.875C254.579 364.142 254.069 365.353 253.172 366.249C252.276 367.145 251.064 367.655 249.796 367.669H226.516ZM222.607 316.351V283.678L196.662 316.351H222.607Z" stroke="#2861A4" stroke-width="1.19242" stroke-linecap="round" stroke-linejoin="round"/>
<path d="M349.485 207.292C358.37 207.292 366.011 208.594 372.409 211.198C378.806 213.804 384.108 217.296 388.314 221.675C392.521 226.06 395.733 231.299 397.732 237.035C399.817 242.957 401.043 249.145 401.375 255.414C401.611 260.505 401.73 265.832 401.731 271.395C401.731 276.961 401.612 282.17 401.375 287.022C401.043 293.29 399.817 299.479 397.732 305.4C395.734 311.137 392.521 316.376 388.314 320.76C384.107 325.142 378.805 328.634 372.409 331.237C366.012 333.84 358.37 335.142 349.485 335.144C340.599 335.144 332.958 333.842 326.561 331.237C320.163 328.635 314.862 325.143 310.656 320.76C306.447 316.377 303.234 311.138 301.238 305.4C299.151 299.479 297.925 293.29 297.595 287.022C297.356 282.169 297.237 276.96 297.239 271.395C297.239 265.832 297.358 260.505 297.595 255.414C297.925 249.145 299.151 242.956 301.238 237.035C303.235 231.298 306.447 226.058 310.656 221.675C314.86 217.297 320.161 213.804 326.561 211.198C332.958 208.596 340.6 207.293 349.485 207.292ZM368.5 286.133C368.971 276.073 368.971 266.129 368.5 256.302C368.294 253.545 367.848 250.812 367.167 248.133C366.58 245.785 365.522 243.579 364.057 241.652C362.551 239.753 360.597 238.258 358.37 237.302C355.999 236.236 353.037 235.703 349.485 235.703C345.93 235.703 342.969 236.236 340.599 237.302C338.372 238.258 336.418 239.753 334.913 241.652C333.441 243.588 332.355 245.788 331.714 248.133C330.975 250.797 330.558 253.539 330.47 256.302C329.876 266.237 329.876 276.198 330.47 286.133C330.558 288.89 330.945 291.629 331.625 294.302C332.214 296.666 333.305 298.877 334.824 300.783C336.374 302.673 338.355 304.165 340.599 305.134C342.968 306.2 345.93 306.732 349.485 306.732C353.039 306.732 356.001 306.199 358.37 305.134C360.614 304.163 362.594 302.672 364.145 300.783C365.662 298.875 366.753 296.666 367.344 294.302C368.022 291.628 368.409 288.89 368.5 286.133V286.133Z" stroke="#2861A4" stroke-width="1.19242" stroke-linecap="round" stroke-linejoin="round"/>
<path d="M488.735 249.512C487.467 249.497 486.255 248.988 485.359 248.092C484.462 247.196 483.952 245.985 483.937 244.718V226.605H427.959C426.691 226.591 425.479 226.081 424.583 225.185C423.686 224.289 423.176 223.078 423.162 221.811V202.988C423.162 199.911 423.932 197.366 425.471 195.352L478.606 128.408C479.672 127.107 480.649 126.248 481.538 125.833C482.426 125.42 483.64 125.213 485.181 125.212H512.014C513.282 125.226 514.494 125.736 515.391 126.632C516.287 127.528 516.798 128.739 516.812 130.006V198.194H532.095C533.363 198.209 534.575 198.719 535.472 199.614C536.368 200.51 536.879 201.721 536.894 202.988V221.811C536.879 223.078 536.368 224.289 535.472 225.185C534.575 226.081 533.363 226.59 532.095 226.605H516.812V244.718C516.798 245.985 516.287 247.195 515.391 248.091C514.494 248.987 513.282 249.497 512.014 249.512H488.735ZM484.825 198.194V165.521L458.88 198.194H484.825Z" stroke="#2861A4" stroke-width="1.19242" stroke-linecap="round" stroke-linejoin="round"/>
<path d="M164.633 375.424H539.028" stroke="#2861A4" stroke-width="1.19242" stroke-linecap="round" stroke-linejoin="round"/>
<path d="M233.792 364.05L230.556 373.864L223.222 373.664L225.645 365.493" fill="white"/>
<path d="M233.792 364.05L230.556 373.864L223.222 373.664L225.645 365.493" stroke="#2861A4" stroke-width="1.19242" stroke-linecap="round" stroke-linejoin="round"/>
<path d="M261.465 215.645L257.009 216.017C258.091 225.113 254.225 231.833 249.155 236.635L254.069 244.363C262.889 232.712 261.465 215.645 261.465 215.645Z" fill="white" stroke="#2861A4" stroke-width="1.19242" stroke-linecap="round" stroke-linejoin="round"/>
<path d="M230.834 246.837L234.955 254.745C244.093 253.73 250.111 249.592 254.069 244.364L249.155 236.635C241.402 243.978 230.834 246.837 230.834 246.837Z" fill="#A5C5E8" stroke="#2861A4" stroke-width="1.19242" stroke-linecap="round" stroke-linejoin="round"/>
<path d="M261.402 217.638L257.271 217.566C257.097 217.46 256.937 217.332 256.796 217.185C256.579 216.954 257.03 216.128 257.03 216.128C257.03 216.128 255.501 213.736 255.153 211.694C254.804 209.653 253.186 207.645 254.162 207.619C255.139 207.592 255.186 209.349 255.67 209.141C255.911 209.037 255.991 207.429 255.716 205.861C255.442 204.294 254.812 202.767 255.5 202.895C256.875 203.15 257.62 208.175 257.62 208.175C257.62 208.175 257.721 206.555 257.714 204.86C257.707 203.042 257.621 201.141 258.483 201.154C259.226 201.164 259.213 202.835 259.414 204.5C259.557 205.595 259.763 206.681 260.03 207.753C260.03 207.753 260.397 202.258 260.999 202.827C261.601 203.396 261.166 208.281 261.515 208.279C261.866 208.277 262.297 204.859 262.793 205.138C263.29 205.418 262.765 211.292 262.765 211.292C262.765 211.292 262.954 214.736 261.629 216.335C261.629 216.335 262.219 217.388 261.402 217.638Z" fill="#204283"/>
<path d="M251.591 234.16L247.183 236.915L253.382 246.819L257.79 244.064L251.591 234.16Z" fill="#A5C5E8" stroke="#2861A4" stroke-width="1.19242" stroke-linecap="round" stroke-linejoin="round"/>
<path d="M-147.808 202.573L-151.21 192.509C-151.108 192.474 -140.142 188.674 -128.69 179.741C-113.698 168.046 -104.927 153.456 -102.621 136.376C-100.23 118.668 -92.4048 102.943 -79.991 90.9021C-68.482 79.739 -53.4758 72.3803 -37.7369 70.1814C-22.3543 68.0327 -7.22574 70.7905 6.00969 78.1576C20.4458 86.1927 32.076 99.5874 39.6428 116.894C51.8557 144.828 72.2288 162.39 100.195 169.09C121.391 174.169 139.283 170.822 139.462 170.788L141.501 181.214C140.695 181.371 121.504 185.02 98.141 179.521C84.3341 176.272 71.9256 170.491 61.2603 162.338C47.9544 152.166 37.4039 138.307 29.9008 121.147C17.0807 91.8249 -7.65007 76.7034 -36.2651 80.7023C-60.6734 84.1121 -87.3999 103.088 -92.0857 137.796C-94.7541 157.564 -105.254 175.045 -122.45 188.349C-135.29 198.283 -147.303 202.402 -147.808 202.573Z" fill="#204283"/>
<path d="M135.937 173.869C135.937 173.869 61.8069 186.328 32.7244 114.561C3.64206 42.7945 -81.6959 87.3357 -98.6893 128.911C-115.683 170.485 -152 187.415 -152 187.415" stroke="#2861A4" stroke-width="2.38484" stroke-linecap="round" stroke-linejoin="round"/>
<path d="M194.465 176.726C194.465 179.352 193.421 181.87 191.563 183.727C189.705 185.584 187.185 186.628 184.557 186.628H137.617C134.989 186.628 132.468 185.584 130.61 183.728C128.751 181.871 127.707 179.352 127.707 176.726C127.707 174.1 128.751 171.581 130.61 169.724C132.468 167.867 134.989 166.824 137.617 166.824H184.557C187.185 166.824 189.705 167.868 191.563 169.725C193.421 171.582 194.465 174.1 194.465 176.726Z" fill="white" stroke="#2861A4" stroke-width="1.19242" stroke-linecap="round" stroke-linejoin="round"/>
<path d="M181.549 178.741H139.063C137.036 178.74 135.07 178.053 133.484 176.791C131.898 175.53 130.786 173.77 130.33 171.796C129.594 173.162 129.225 174.695 129.26 176.245C129.294 177.796 129.73 179.311 130.526 180.643C131.321 181.974 132.449 183.077 133.799 183.843C135.149 184.608 136.674 185.011 138.226 185.012H180.712C182.062 185.015 183.396 184.713 184.613 184.128C185.83 183.543 186.898 182.691 187.738 181.634C188.578 180.578 189.168 179.345 189.463 178.029C189.759 176.712 189.752 175.345 189.443 174.032C188.675 175.456 187.536 176.645 186.146 177.474C184.756 178.303 183.167 178.741 181.549 178.741Z" fill="#A5C5E8"/>
<path d="M215.328 180.373C215.329 182.803 214.85 185.209 213.92 187.454C212.989 189.699 211.625 191.738 209.906 193.457C208.187 195.175 206.145 196.538 203.899 197.467C201.652 198.397 199.244 198.875 196.813 198.875C194.381 198.875 191.973 198.397 189.727 197.467C187.48 196.538 185.439 195.175 183.72 193.457C182 191.738 180.637 189.699 179.706 187.454C178.776 185.209 178.297 182.803 178.298 180.373V173.077C178.298 170.648 178.776 168.242 179.707 165.997C180.637 163.752 182.001 161.712 183.72 159.994C185.439 158.276 187.48 156.913 189.727 155.984C191.973 155.054 194.381 154.575 196.813 154.576C199.244 154.575 201.652 155.054 203.899 155.984C206.145 156.913 208.186 158.276 209.906 159.994C211.625 161.712 212.989 163.752 213.919 165.997C214.85 168.242 215.328 170.648 215.328 173.077V180.373Z" fill="white" stroke="#2861A4" stroke-width="1.19242" stroke-linecap="round" stroke-linejoin="round"/>
<path d="M202.359 188.945C200.207 188.945 198.075 188.522 196.086 187.698C194.097 186.875 192.29 185.669 190.768 184.148C189.246 182.627 188.038 180.821 187.215 178.833C186.391 176.846 185.968 174.716 185.968 172.565V166.106C185.966 163.983 186.379 161.88 187.183 159.915C184.957 161.413 183.134 163.436 181.874 165.804C180.615 168.173 179.957 170.814 179.959 173.496V179.955C179.959 183.752 181.279 187.43 183.693 190.362C186.107 193.294 189.466 195.297 193.194 196.028C196.923 196.759 200.79 196.174 204.134 194.371C207.478 192.568 210.091 189.661 211.527 186.146C208.821 187.975 205.627 188.95 202.359 188.945Z" fill="#A5C5E8"/>
<path d="M275.829 190.797C275.829 193.535 275.29 196.246 274.241 198.775C273.193 201.304 271.656 203.602 269.719 205.538C267.782 207.474 265.482 209.01 262.95 210.057C260.419 211.105 257.706 211.644 254.966 211.643H217.936C215.196 211.643 212.483 211.104 209.952 210.057C207.421 209.009 205.121 207.474 203.184 205.538C201.246 203.602 199.71 201.304 198.661 198.775C197.613 196.245 197.074 193.535 197.074 190.797V162.654C197.074 159.916 197.613 157.205 198.662 154.676C199.71 152.147 201.247 149.849 203.184 147.913C205.121 145.977 207.421 144.442 209.952 143.394C212.483 142.347 215.196 141.808 217.936 141.808H254.966C257.706 141.807 260.419 142.346 262.95 143.394C265.481 144.441 267.781 145.977 269.719 147.913C271.656 149.848 273.193 152.147 274.241 154.676C275.29 157.205 275.829 159.916 275.829 162.654V190.797Z" fill="white" stroke="#2861A4" stroke-width="1.19242" stroke-linecap="round" stroke-linejoin="round"/>
<path d="M261.981 199.327H227.563C225.016 199.327 222.495 198.826 220.142 197.852C217.789 196.878 215.652 195.451 213.851 193.652C212.05 191.853 210.622 189.717 209.648 187.366C208.673 185.015 208.172 182.495 208.172 179.951V153.793C208.171 151.36 208.629 148.95 209.523 146.687C206.335 148.308 203.657 150.779 201.787 153.826C199.917 156.874 198.927 160.379 198.928 163.954V190.112C198.928 192.656 199.429 195.176 200.403 197.527C201.378 199.878 202.806 202.014 204.607 203.813C206.407 205.612 208.545 207.039 210.897 208.013C213.25 208.987 215.772 209.488 218.318 209.488H252.736C256.628 209.488 260.43 208.317 263.648 206.129C266.865 203.941 269.349 200.836 270.776 197.218C268.053 198.607 265.039 199.33 261.981 199.327Z" fill="#A5C5E8"/>
<path d="M279.054 127.996C276.086 127.974 273.139 128.494 270.358 129.533C270.32 129.532 270.282 129.528 270.244 129.528C268.545 129.528 266.918 130.582 265.415 132.509C264.07 133.767 263.182 135.223 262.895 136.79C258.981 145.24 256.378 160.235 256.378 177.329C256.378 203.728 262.586 225.129 270.244 225.129C270.984 225.122 271.711 224.932 272.36 224.576C274.542 225.166 276.794 225.462 279.054 225.454C288.038 225.454 295.321 221.02 295.321 215.552V137.899C295.321 132.43 288.038 127.996 279.054 127.996Z" fill="white" stroke="#2861A4" stroke-width="1.19242" stroke-linecap="round" stroke-linejoin="round"/>
<path d="M246.796 189.594C246.796 189.917 246.668 190.227 246.44 190.455C246.211 190.683 245.901 190.811 245.578 190.811C245.256 190.81 244.947 190.682 244.72 190.453C244.492 190.225 244.365 189.916 244.365 189.594V159.367C244.365 159.045 244.494 158.737 244.721 158.51C244.948 158.283 245.257 158.155 245.578 158.154C245.901 158.154 246.21 158.281 246.438 158.509C246.667 158.736 246.795 159.045 246.796 159.367V189.594Z" fill="#A5C5E8"/>
<path d="M238.014 189.594C238.014 189.917 237.886 190.226 237.658 190.455C237.429 190.683 237.119 190.811 236.796 190.811C236.474 190.81 236.165 190.682 235.938 190.453C235.71 190.225 235.582 189.916 235.583 189.594V159.367C235.583 159.045 235.711 158.737 235.939 158.51C236.166 158.283 236.475 158.155 236.796 158.154C237.119 158.154 237.428 158.281 237.656 158.509C237.885 158.736 238.013 159.045 238.014 159.367V189.594Z" fill="#A5C5E8"/>
<path d="M302.598 177.329C302.598 203.728 296.39 225.129 288.732 225.129C281.074 225.129 274.867 203.728 274.867 177.329C274.867 150.929 281.074 129.528 288.732 129.528C296.39 129.528 302.598 150.929 302.598 177.329Z" fill="#5786C5" stroke="#2861A4" stroke-width="1.19242" stroke-miterlimit="10"/>
<path d="M285.502 184.904C285.502 185.394 285.307 185.864 284.96 186.21C284.614 186.557 284.143 186.751 283.653 186.751C283.41 186.751 283.17 186.703 282.946 186.611C282.721 186.518 282.517 186.382 282.346 186.21C282.174 186.039 282.038 185.835 281.945 185.611C281.852 185.387 281.804 185.146 281.804 184.904V168.739C281.804 168.496 281.852 168.256 281.945 168.032C282.038 167.807 282.174 167.604 282.346 167.432C282.517 167.261 282.721 167.125 282.946 167.032C283.17 166.939 283.41 166.891 283.653 166.891C284.143 166.891 284.614 167.086 284.96 167.432C285.307 167.779 285.502 168.249 285.502 168.739V184.904Z" fill="#204283"/>
<path d="M295.902 178.669C295.902 179.159 295.707 179.628 295.36 179.975C295.014 180.321 294.543 180.516 294.053 180.516C293.563 180.516 293.092 180.321 292.746 179.975C292.399 179.628 292.204 179.159 292.204 178.669V162.503C292.204 162.013 292.399 161.543 292.746 161.197C293.092 160.85 293.563 160.656 294.053 160.656C294.543 160.656 295.014 160.85 295.36 161.197C295.707 161.543 295.902 162.013 295.902 162.503V178.669Z" fill="#204283"/>
<path d="M257.249 359.778L255.805 368.149L247.831 369.419L249.623 361.221" fill="white"/>
<path d="M257.249 359.778L255.805 368.149L247.831 369.419L249.623 361.221" stroke="#2861A4" stroke-width="1.19242" stroke-linecap="round" stroke-linejoin="round"/>
<path d="M220.856 242.752C220.856 242.752 208.833 244.554 209.796 256.207C210.122 260.158 216.888 294.289 216.888 294.289L248.448 291.287C248.448 291.287 239.971 247.798 234.562 244.194C229.151 240.59 220.856 242.752 220.856 242.752Z" fill="#204283"/>
<path d="M216.889 294.289C216.889 294.289 218.412 303.932 221.818 313.029C226.949 326.736 231.346 333.548 230.113 343.709C228.267 358.93 222.467 367.514 222.467 367.514L235.814 369.65C235.814 369.65 244.134 341.708 242.901 337.704C240.738 318.964 238.741 289.979 238.741 289.979L216.889 294.289Z" fill="#204283"/>
<path d="M246.283 286.54C246.283 286.54 262.209 309.759 262.93 326.158C263.518 339.523 258.231 363.588 258.231 363.588L247.083 363.236C247.083 363.236 251.067 332.623 248.602 325.234C241.389 312.26 230.575 296.444 230.575 296.444L246.283 286.54Z" fill="#204283"/>
<path d="M217.61 247.707C217.61 247.707 225.725 245.275 228.791 253.564C231.856 261.853 229.146 267.682 224.218 268.571C213.936 270.426 206.609 248.969 217.61 247.707Z" fill="#A5C5E8"/>
<path d="M237.356 255.011C237.632 255.871 234.02 258.069 234.02 258.069C233.461 256.615 232.784 255.209 231.996 253.865C231.353 252.81 230.62 251.812 229.805 250.884C228.43 249.6 226.626 247.798 224.606 246.905C223.873 246.565 223.109 246.294 222.326 246.094C220.711 245.68 220.608 244.047 222.253 243.766C223.067 243.52 223.916 243.407 224.767 243.432C225.626 243.457 226.48 243.586 227.309 243.815C228.178 243.991 229.024 244.267 229.83 244.636C230.62 245.008 231.377 245.449 232.09 245.954C232.863 246.428 235.814 250.2 237.356 255.011Z" fill="#A5C5E8"/>
<path d="M221.152 228.269L219.923 236.206L214.358 231.101L212.381 227.158L214.605 225.06C214.605 225.06 223.004 218.271 224.363 216.728C225.722 215.186 230.167 223.816 226.338 227.395" fill="#204283"/>
<path d="M218.993 234.823L219.684 244.554C219.684 244.554 223.155 246.311 225.139 246.041C226.312 245.885 227.381 245.287 228.126 244.369L224.914 234.884L218.993 234.823Z" fill="white" stroke="#2861A4" stroke-width="1.19242" stroke-linecap="round" stroke-linejoin="round"/>
<path d="M225.587 225.548L219.636 227.896C219.636 227.896 220.256 230.603 220.127 230.917C220.126 230.918 218.427 231.944 218.426 231.945C217.599 232.517 217.519 233.83 218.247 234.879C218.974 235.927 220.233 236.312 221.059 235.74C221.247 235.607 221.401 235.432 221.51 235.23C223.222 236.962 224.454 237.754 226.718 237.754C231.01 237.754 225.587 225.548 225.587 225.548Z" fill="white" stroke="#2861A4" stroke-width="0.794946" stroke-linecap="round" stroke-linejoin="round"/>
<path d="M241.414 215.387H237.988C238.386 223.099 234.345 230.226 229.712 235.855L235.788 240.901C241.633 228.552 241.414 215.387 241.414 215.387Z" fill="white" stroke="#2861A4" stroke-width="1.19242" stroke-linecap="round" stroke-linejoin="round"/>
<path d="M216.496 247.995C215.684 248.954 214.98 250 214.396 251.113C213.281 253.209 213.281 256.099 215.085 257.18C220.856 261.145 226.266 254.669 229.756 250.459C230.477 249.583 231.15 248.7 231.783 247.766C232.416 246.834 233.008 245.922 233.563 244.952C233.972 244.281 234.358 243.702 234.724 243.019C235.1 242.318 235.453 241.61 235.788 240.901L229.712 235.855C229.628 235.957 218.331 245.996 216.496 247.995Z" fill="#A5C5E8" stroke="#2861A4" stroke-width="1.19242" stroke-linecap="round" stroke-linejoin="round"/>
<path d="M230.706 231.985L227.38 235.979L236.366 243.451L239.692 239.458L230.706 231.985Z" fill="#A5C5E8" stroke="#2861A4" stroke-width="1.19242" stroke-linecap="round" stroke-linejoin="round"/>
<path d="M245.111 282.993C245.111 282.993 225.845 288.312 215.491 287.036L216.247 296.291C216.247 296.291 236.255 291.375 245.622 286.481C245.787 286.394 245.63 285.955 245.63 285.955L245.111 282.993Z" fill="white" stroke="#2861A4" stroke-width="1.19242" stroke-linecap="round" stroke-linejoin="round"/>
<path d="M254.042 374.176L253.32 373.276L246.204 372.797L245.596 374.747C245.596 374.747 266.244 377.09 266.605 375.558C266.72 375.068 266.835 374.782 266.797 374.535L254.042 374.176Z" fill="#A5C5E8" stroke="#2861A4" stroke-width="1.19242" stroke-linecap="round" stroke-linejoin="round"/>
<path d="M254.041 374.176L266.797 374.535C266.717 374.011 267.612 373.445 264.666 371.729C263.068 370.798 259.695 370.744 258.49 369.837C257.229 368.873 256.168 367.675 255.364 366.308C255.364 366.308 252.629 369.642 251.096 369.011C249.563 368.38 247.76 367.809 247.76 367.809L246.204 372.797L253.32 373.276L254.041 374.176Z" fill="#A5C5E8" stroke="#2861A4" stroke-width="1.19242" stroke-linecap="round" stroke-linejoin="round"/>
<path d="M229.097 379.495L228.411 378.567L221.319 377.813L220.635 379.738C220.635 379.738 241.177 382.88 241.597 381.363C241.731 380.878 241.857 380.596 241.829 380.349L229.097 379.495Z" fill="#A5C5E8" stroke="#2861A4" stroke-width="1.19242" stroke-linecap="round" stroke-linejoin="round"/>
<path d="M229.097 379.495L241.829 380.349C241.769 379.821 242.686 379.291 239.809 377.461C238.248 376.469 234.879 376.285 233.711 375.331C232.489 374.32 231.474 373.081 230.724 371.684C230.724 371.684 227.862 374.909 226.354 374.219C224.848 373.529 223.068 372.89 223.068 372.89L221.319 377.813L228.411 378.567L229.097 379.495Z" fill="#A5C5E8" stroke="#2861A4" stroke-width="1.19242" stroke-linecap="round" stroke-linejoin="round"/>
<path d="M241.933 216.939L237.735 216.752C237.561 216.639 237.403 216.504 237.263 216.351C237.049 216.11 237.53 215.282 237.53 215.282C237.53 215.282 236.042 212.809 235.743 210.723C235.445 208.637 233.855 206.551 234.849 206.551C235.843 206.551 235.843 208.34 236.34 208.141C236.588 208.042 236.714 206.409 236.478 204.807C236.242 203.206 235.644 201.636 236.34 201.785C237.731 202.083 238.35 207.212 238.35 207.212C238.35 207.212 238.497 205.568 238.537 203.845C238.581 201.996 238.545 200.061 239.421 200.097C240.177 200.128 240.117 201.827 240.275 203.525C240.391 204.643 240.57 205.753 240.812 206.85C240.812 206.85 241.337 201.272 241.933 201.868C242.53 202.463 241.952 207.418 242.308 207.426C242.664 207.433 243.197 203.97 243.694 204.268C244.192 204.565 243.496 210.524 243.496 210.524C243.496 210.524 243.592 214.032 242.201 215.62C242.201 215.62 242.771 216.707 241.933 216.939Z" fill="#204283"/>
<path d="M236.369 263.244C236.811 264.394 236.784 265.475 236.308 265.658C235.831 265.842 235.086 265.057 234.643 263.907C234.2 262.756 234.228 261.674 234.705 261.491C235.18 261.308 235.926 262.093 236.369 263.244Z" fill="white"/>
<path d="M240.297 260.858C240.74 262.008 240.713 263.089 240.236 263.273C239.76 263.456 239.015 262.671 238.571 261.521C238.129 260.37 238.156 259.288 238.633 259.105C239.109 258.922 239.854 259.707 240.297 260.858Z" fill="white"/>
<path d="M215.169 285.976H222.872C223.485 285.976 224.073 286.219 224.506 286.652C224.94 287.085 225.183 287.673 225.183 288.285V303.834C225.183 304.447 224.94 305.034 224.507 305.467C224.073 305.9 223.485 306.144 222.872 306.144H215.168C214.556 306.144 213.968 305.9 213.534 305.467C213.101 305.034 212.857 304.447 212.857 303.834V288.285C212.857 287.673 213.101 287.085 213.534 286.652C213.968 286.219 214.556 285.976 215.169 285.976Z" fill="#DCE8F6" stroke="#2861A4" stroke-width="1.19242" stroke-linecap="round" stroke-linejoin="round"/>
<path d="M539.265 319.488C539.213 318.792 539.16 318.136 539.113 317.515C539.065 316.895 539.059 316.312 539.03 315.774C539.005 315.237 538.977 314.741 538.981 314.294C538.971 313.706 538.964 313.212 538.964 312.797C539.989 311.791 547.337 303.997 541.296 292.923C541.296 292.923 530.135 300.996 538.763 312.792C538.7 313.2 538.63 313.692 538.563 314.272C538.45 315.167 538.366 316.259 538.283 317.516C538.255 318.143 538.228 318.812 538.201 319.517C538.158 320.224 538.266 320.962 538.297 321.735C538.341 322.337 538.375 322.966 538.421 323.607C538.008 323.064 537.462 322.349 536.913 321.63C536.638 321.269 536.361 320.905 536.101 320.569C536.001 320.447 535.905 320.328 535.81 320.211C537.48 304.868 526.362 302.702 526.362 302.702C526.635 318.881 533.191 320.284 535.215 320.33C535.362 320.512 535.52 320.704 535.687 320.908C535.945 321.245 536.221 321.604 536.492 321.961C537.041 322.68 537.588 323.397 537.998 323.937C538.058 324 538.083 324.08 538.149 324.126C538.213 324.176 538.275 324.221 538.33 324.267C538.391 324.311 538.434 324.343 538.483 324.382C538.565 325.136 538.651 325.909 538.734 326.707C538.785 327.147 538.822 327.594 538.886 328.044C538.956 328.492 539.028 328.947 539.098 329.406C539.245 330.324 539.394 331.263 539.544 332.216C539.731 333.177 539.909 334.119 540.126 335.095C540.23 335.556 540.34 336.023 540.446 336.487C540.385 336.364 540.317 336.244 540.242 336.128C540.111 335.91 539.978 335.69 539.843 335.468C539.579 335.027 539.312 334.582 539.062 334.167C538.789 333.764 538.534 333.389 538.316 333.066C538.268 332.987 538.216 332.912 538.159 332.84C538.092 332.777 538.027 332.722 537.969 332.664C537.913 332.614 537.867 332.581 537.816 332.539C537.49 330.155 535.476 320.742 523.87 318.613C523.87 318.613 523.127 332.34 537.7 333.08C537.709 333.104 537.719 333.126 537.727 333.153C537.772 333.231 537.824 333.307 537.88 333.378C538.096 333.694 538.343 334.063 538.613 334.457C538.857 334.866 539.122 335.301 539.384 335.743C539.514 335.96 539.647 336.178 539.777 336.394C539.905 336.601 540.021 336.817 540.124 337.038C540.338 337.468 540.534 337.868 540.704 338.208C540.738 338.294 540.78 338.375 540.831 338.452C540.864 338.494 540.897 338.531 540.93 338.572C541.354 340.358 541.784 342.157 542.101 343.971C542.3 344.967 542.417 345.973 542.554 346.969C542.618 347.469 542.642 347.973 542.688 348.468C542.724 348.969 542.78 349.466 542.777 349.963C542.779 350.077 542.781 350.185 542.782 350.299C542.749 350.232 542.716 350.163 542.677 350.095C542.517 349.781 542.34 349.475 542.147 349.18C541.965 348.859 541.724 348.564 541.505 348.244C541.265 347.945 541.02 347.636 540.751 347.349C540.49 347.099 540.245 346.827 539.963 346.6C540.032 346.577 540.096 346.563 540.166 346.54C540.166 346.54 536.375 335.205 524.09 337.319C524.09 337.319 526.978 350.284 539.346 346.782C539.414 346.839 539.481 346.892 539.548 346.948C539.833 347.187 540.104 347.443 540.358 347.715C540.614 347.987 540.847 348.284 541.079 348.569C541.288 348.874 541.519 349.157 541.693 349.466C541.885 349.763 542.056 350.058 542.204 350.345C542.363 350.63 542.486 350.908 542.607 351.164C542.675 351.29 542.701 351.426 542.771 351.536C542.782 351.552 542.79 351.569 542.799 351.585C542.802 352.032 542.8 352.477 542.769 352.92C542.747 353.406 542.73 353.889 542.708 354.37C542.667 354.851 542.609 355.328 542.562 355.798C542.515 356.271 542.465 356.738 542.416 357.202C542.343 357.664 542.27 358.121 542.196 358.572C542.045 359.476 541.92 360.362 541.714 361.21C541.523 362.062 541.342 362.891 541.166 363.696C541.114 363.883 541.065 364.068 541.012 364.253C540.969 364.073 540.92 363.891 540.861 363.712C540.628 362.987 540.293 362.299 539.866 361.668C539.82 361.61 539.799 361.531 539.74 361.488C539.682 361.44 539.626 361.399 539.574 361.359C539.503 361.308 539.445 361.271 539.385 361.231C539.275 359.974 538.12 350.762 527.925 349.714C527.925 349.714 527.271 361.787 539.162 361.38C539.187 361.451 539.212 361.522 539.242 361.607C539.263 361.666 539.284 361.73 539.306 361.796C539.33 361.859 539.39 361.904 539.423 361.968C539.822 362.557 540.134 363.199 540.352 363.876C540.471 364.234 540.556 364.602 540.606 364.976C540.634 365.146 540.651 365.318 540.659 365.491C540.66 365.516 540.66 365.538 540.659 365.562C540.62 365.707 540.583 365.851 540.544 365.993C540.443 366.359 540.344 366.722 540.245 367.075C540.142 367.423 540.024 367.76 539.945 368.101C539.777 368.778 539.618 369.419 539.467 370.024C539.182 371.239 538.869 372.278 538.618 373.139C538.123 374.863 537.857 375.859 537.857 375.859C537.857 375.859 538.279 374.925 538.995 373.275C539.351 372.446 539.795 371.447 540.231 370.269C540.388 369.868 540.553 369.441 540.724 369.002C540.762 368.983 540.795 368.968 540.838 368.947C540.898 368.917 540.963 368.885 541.031 368.851C541.1 368.822 541.139 368.748 541.205 368.7C541.326 368.58 541.456 368.471 541.595 368.373C541.744 368.272 541.905 368.164 542.069 368.053C542.236 367.942 542.399 367.817 542.578 367.709C542.763 367.619 542.953 367.522 543.141 367.424C543.324 367.321 543.515 367.232 543.712 367.16C543.907 367.084 544.101 367.013 544.281 366.945C544.46 366.879 544.644 366.824 544.83 366.783C545.007 366.741 545.17 366.683 545.324 366.661C545.4 366.655 545.476 366.642 545.55 366.622C545.584 366.603 545.614 366.59 545.65 366.573C547.75 367.131 557.472 369.058 563.925 358.925C563.925 358.925 551.6 353.142 545.404 366.101C545.346 366.111 545.286 366.13 545.222 366.135C545.056 366.161 544.883 366.22 544.695 366.263C544.498 366.309 544.304 366.366 544.115 366.436C543.918 366.509 543.714 366.585 543.507 366.665C543.3 366.744 543.098 366.837 542.903 366.944C542.704 367.045 542.507 367.148 542.31 367.25C542.119 367.36 541.946 367.49 541.771 367.605C541.598 367.723 541.43 367.838 541.271 367.947C541.196 367.994 541.125 368.049 541.061 368.11C541.261 367.534 541.394 366.91 541.577 366.279C541.778 365.532 541.989 364.756 542.209 363.951C542.385 363.134 542.573 362.293 542.763 361.429C542.973 360.566 543.101 359.66 543.255 358.739C543.328 358.28 543.403 357.814 543.479 357.345C543.506 357.102 543.531 356.853 543.556 356.608C543.585 356.597 543.609 356.586 543.639 356.576C543.69 356.554 543.71 356.496 543.755 356.463C544.069 356.151 544.487 355.734 544.901 355.318C545.319 354.901 545.735 354.483 546.047 354.168C546.072 354.138 546.104 354.118 546.128 354.093C548.8 353.705 557.814 351.572 559.97 340.289C559.97 340.289 546.188 339.442 545.386 354.075C545.124 354.338 544.824 354.64 544.524 354.938C544.213 355.247 543.904 355.556 543.636 355.823C543.683 355.369 543.738 354.913 543.776 354.447C543.797 353.953 543.818 353.456 543.839 352.958C543.911 351.958 543.863 350.946 543.848 349.922C543.849 349.412 543.791 348.902 543.756 348.388C543.708 347.877 543.686 347.359 543.619 346.846C543.514 346.085 543.411 345.319 543.287 344.558C543.301 344.474 543.31 344.39 543.316 344.305C543.373 343.827 543.395 343.268 543.5 342.668C543.596 342.069 543.685 341.43 543.814 340.793C544.044 339.52 544.329 338.255 544.548 337.306C544.58 337.194 544.606 337.081 544.625 336.966C544.629 336.905 544.633 336.846 544.635 336.786C545.971 336.123 555.751 330.802 551.452 318.831C551.452 318.831 537.905 327.172 544.253 336.516C544.249 336.527 544.244 336.539 544.238 336.549C544.195 336.642 544.153 336.739 544.105 336.844C544.063 336.948 544.062 337.068 544.026 337.186C543.803 338.139 543.518 339.41 543.286 340.696C543.155 341.336 543.066 341.986 542.97 342.593C542.964 342.637 542.961 342.679 542.954 342.723C542.624 341.048 542.227 339.404 541.846 337.781C541.608 336.802 541.392 335.832 541.176 334.879C540.962 333.925 540.78 332.945 540.597 332.023C540.449 331.083 540.302 330.155 540.16 329.248C540.087 328.795 540.018 328.346 539.946 327.902C539.885 327.458 539.848 327.017 539.798 326.583C539.714 325.802 539.635 325.048 539.555 324.308C539.583 324.094 539.624 323.883 539.679 323.674C539.738 323.402 539.812 323.133 539.9 322.869C539.98 322.6 540.076 322.337 540.185 322.079C540.28 321.822 540.409 321.58 540.517 321.34C540.733 320.911 540.976 320.495 541.244 320.097C541.296 320.005 541.371 319.937 541.413 319.848C541.453 319.758 541.494 319.671 541.528 319.593C541.53 319.587 541.533 319.584 541.535 319.577C543.663 318.917 550.489 316.103 548.676 307.644C548.676 307.644 538.893 309.94 540.9 319.642C540.87 319.695 540.837 319.747 540.799 319.795C540.518 320.213 540.264 320.649 540.037 321.099C539.923 321.353 539.79 321.604 539.689 321.876C539.59 322.114 539.504 322.357 539.426 322.606C539.407 322.29 539.391 321.98 539.37 321.675C539.31 320.912 539.307 320.183 539.265 319.488Z" fill="#5786C5"/>
<path d="M154.833 269.283C154.833 269.614 154.735 269.936 154.552 270.211C154.368 270.485 154.107 270.699 153.802 270.826C153.497 270.952 153.161 270.985 152.837 270.921C152.513 270.856 152.215 270.697 151.981 270.464C151.748 270.23 151.589 269.933 151.524 269.609C151.46 269.285 151.493 268.95 151.619 268.645C151.746 268.34 151.96 268.079 152.235 267.896C152.509 267.712 152.832 267.614 153.163 267.614C153.606 267.614 154.031 267.79 154.344 268.103C154.657 268.416 154.833 268.841 154.833 269.283Z" fill="#A5C5E8"/>
<path d="M164.336 269.283C164.336 269.614 164.238 269.936 164.054 270.211C163.871 270.485 163.61 270.699 163.305 270.826C163 270.952 162.664 270.985 162.34 270.921C162.016 270.856 161.718 270.697 161.484 270.464C161.251 270.23 161.092 269.933 161.027 269.609C160.963 269.285 160.996 268.95 161.122 268.645C161.249 268.34 161.463 268.079 161.738 267.896C162.012 267.712 162.335 267.614 162.666 267.614C163.109 267.614 163.533 267.79 163.847 268.103C164.16 268.416 164.336 268.841 164.336 269.283Z" fill="#A5C5E8"/>
<path d="M173.839 269.283C173.839 269.614 173.741 269.936 173.557 270.211C173.374 270.485 173.113 270.699 172.808 270.826C172.502 270.952 172.166 270.985 171.842 270.921C171.518 270.856 171.221 270.697 170.987 270.464C170.753 270.23 170.594 269.932 170.53 269.609C170.466 269.285 170.499 268.949 170.625 268.644C170.752 268.339 170.966 268.079 171.241 267.895C171.516 267.712 171.839 267.614 172.169 267.614C172.389 267.614 172.606 267.658 172.808 267.742C173.011 267.825 173.195 267.948 173.35 268.103C173.505 268.258 173.628 268.442 173.712 268.645C173.796 268.847 173.839 269.064 173.839 269.283Z" fill="#A5C5E8"/>
<path d="M183.343 269.283C183.343 269.614 183.245 269.936 183.061 270.211C182.878 270.485 182.617 270.699 182.312 270.825C182.006 270.952 181.67 270.985 181.346 270.92C181.022 270.856 180.725 270.697 180.491 270.464C180.258 270.23 180.098 269.933 180.034 269.609C179.97 269.285 180.003 268.95 180.129 268.645C180.256 268.34 180.47 268.079 180.744 267.896C181.019 267.712 181.342 267.614 181.672 267.614C181.892 267.614 182.109 267.657 182.312 267.741C182.514 267.825 182.698 267.948 182.854 268.103C183.009 268.258 183.132 268.442 183.216 268.645C183.3 268.847 183.343 269.064 183.343 269.283Z" fill="#A5C5E8"/>
<path d="M192.847 269.283C192.847 269.614 192.749 269.936 192.565 270.211C192.382 270.485 192.121 270.699 191.815 270.826C191.51 270.952 191.174 270.985 190.85 270.92C190.526 270.856 190.229 270.697 189.995 270.464C189.761 270.23 189.602 269.933 189.538 269.609C189.474 269.285 189.507 268.95 189.633 268.645C189.76 268.34 189.974 268.079 190.248 267.896C190.523 267.712 190.846 267.614 191.176 267.614C191.619 267.614 192.044 267.79 192.357 268.103C192.671 268.416 192.847 268.841 192.847 269.283Z" fill="#A5C5E8"/>
<path d="M202.35 269.283C202.35 269.614 202.252 269.936 202.068 270.211C201.885 270.485 201.624 270.699 201.318 270.826C201.013 270.952 200.677 270.985 200.353 270.921C200.029 270.856 199.731 270.697 199.498 270.463C199.264 270.23 199.105 269.932 199.041 269.609C198.976 269.285 199.01 268.949 199.136 268.644C199.263 268.339 199.477 268.079 199.752 267.895C200.027 267.712 200.35 267.614 200.68 267.614C201.123 267.615 201.548 267.791 201.861 268.104C202.174 268.417 202.35 268.841 202.35 269.283Z" fill="#A5C5E8"/>
<path d="M154.833 279.67C154.833 280 154.735 280.323 154.552 280.597C154.368 280.872 154.108 281.086 153.802 281.212C153.497 281.339 153.161 281.372 152.837 281.308C152.513 281.243 152.215 281.084 151.982 280.851C151.748 280.618 151.589 280.32 151.524 279.996C151.46 279.672 151.493 279.337 151.619 279.032C151.746 278.727 151.96 278.466 152.235 278.283C152.509 278.099 152.832 278.001 153.163 278.001C153.605 278.002 154.03 278.177 154.343 278.49C154.656 278.803 154.833 279.227 154.833 279.67Z" fill="#A5C5E8"/>
<path d="M164.336 279.67C164.336 280 164.238 280.323 164.055 280.597C163.871 280.872 163.611 281.086 163.305 281.212C163 281.339 162.664 281.372 162.34 281.308C162.016 281.243 161.718 281.084 161.485 280.851C161.251 280.618 161.092 280.32 161.027 279.996C160.963 279.672 160.996 279.337 161.122 279.032C161.249 278.727 161.463 278.466 161.738 278.283C162.012 278.099 162.335 278.001 162.666 278.001C163.108 278.001 163.533 278.177 163.846 278.49C164.159 278.803 164.335 279.227 164.336 279.67Z" fill="#A5C5E8"/>
<path d="M173.839 279.67C173.839 280 173.741 280.323 173.558 280.597C173.374 280.872 173.113 281.086 172.808 281.212C172.503 281.339 172.167 281.372 171.843 281.308C171.519 281.243 171.221 281.084 170.987 280.851C170.754 280.617 170.595 280.32 170.53 279.996C170.466 279.672 170.499 279.336 170.625 279.031C170.752 278.726 170.966 278.465 171.241 278.282C171.516 278.099 171.839 278.001 172.169 278.001C172.612 278.002 173.037 278.177 173.35 278.49C173.663 278.803 173.839 279.227 173.839 279.67Z" fill="#A5C5E8"/>
<path d="M183.343 279.67C183.343 280 183.245 280.323 183.062 280.597C182.878 280.872 182.617 281.086 182.312 281.212C182.007 281.339 181.671 281.372 181.347 281.307C181.023 281.243 180.725 281.084 180.491 280.851C180.258 280.617 180.099 280.32 180.034 279.996C179.97 279.672 180.003 279.337 180.129 279.032C180.255 278.727 180.47 278.466 180.744 278.283C181.019 278.099 181.342 278.001 181.672 278.001C182.115 278.001 182.54 278.177 182.853 278.49C183.166 278.803 183.342 279.227 183.343 279.67Z" fill="#A5C5E8"/>
<path d="M192.847 279.67C192.847 280 192.749 280.323 192.565 280.597C192.382 280.872 192.121 281.086 191.816 281.212C191.511 281.339 191.175 281.372 190.851 281.307C190.527 281.243 190.229 281.084 189.995 280.851C189.762 280.617 189.602 280.32 189.538 279.996C189.473 279.672 189.507 279.337 189.633 279.032C189.759 278.727 189.974 278.466 190.248 278.283C190.523 278.099 190.846 278.001 191.176 278.001C191.619 278.002 192.044 278.177 192.357 278.49C192.67 278.803 192.846 279.227 192.847 279.67Z" fill="#A5C5E8"/>
<path d="M202.35 279.67C202.35 280 202.252 280.323 202.068 280.597C201.885 280.872 201.624 281.086 201.319 281.212C201.014 281.339 200.678 281.372 200.353 281.307C200.029 281.243 199.732 281.084 199.498 280.851C199.264 280.617 199.105 280.32 199.041 279.996C198.976 279.672 199.01 279.336 199.136 279.031C199.263 278.726 199.477 278.465 199.752 278.282C200.027 278.099 200.35 278.001 200.68 278.001C201.123 278.002 201.547 278.178 201.86 278.49C202.173 278.803 202.349 279.227 202.35 279.67Z" fill="#A5C5E8"/>
<path d="M154.833 290.057C154.833 290.387 154.735 290.71 154.551 290.984C154.368 291.259 154.107 291.472 153.801 291.599C153.496 291.725 153.16 291.758 152.836 291.693C152.512 291.629 152.215 291.47 151.981 291.236C151.748 291.003 151.589 290.705 151.524 290.382C151.46 290.058 151.493 289.722 151.619 289.417C151.746 289.112 151.96 288.852 152.235 288.668C152.509 288.485 152.832 288.387 153.163 288.387C153.382 288.387 153.599 288.43 153.802 288.514C154.005 288.598 154.189 288.721 154.344 288.876C154.499 289.031 154.622 289.215 154.706 289.418C154.79 289.621 154.833 289.838 154.833 290.057Z" fill="#A5C5E8"/>
<path d="M164.336 290.057C164.336 290.387 164.238 290.71 164.054 290.984C163.871 291.259 163.61 291.472 163.304 291.599C162.999 291.725 162.663 291.758 162.339 291.693C162.015 291.629 161.718 291.47 161.484 291.236C161.251 291.003 161.092 290.705 161.027 290.382C160.963 290.058 160.996 289.722 161.122 289.417C161.249 289.112 161.463 288.852 161.738 288.668C162.012 288.485 162.335 288.387 162.666 288.387C162.885 288.387 163.102 288.43 163.305 288.514C163.508 288.598 163.692 288.721 163.847 288.876C164.002 289.031 164.125 289.215 164.209 289.418C164.293 289.621 164.336 289.838 164.336 290.057Z" fill="#A5C5E8"/>
<path d="M173.839 290.057C173.839 290.387 173.741 290.71 173.557 290.984C173.373 291.259 173.112 291.473 172.807 291.599C172.502 291.725 172.166 291.758 171.842 291.693C171.518 291.629 171.22 291.47 170.987 291.236C170.753 291.003 170.594 290.705 170.53 290.381C170.466 290.057 170.499 289.722 170.626 289.417C170.752 289.112 170.966 288.851 171.241 288.668C171.516 288.485 171.839 288.387 172.169 288.387C172.389 288.387 172.606 288.43 172.809 288.514C173.011 288.598 173.195 288.721 173.35 288.876C173.505 289.031 173.628 289.216 173.712 289.418C173.796 289.621 173.839 289.838 173.839 290.057Z" fill="#A5C5E8"/>
<path d="M183.343 290.057C183.343 290.387 183.244 290.71 183.061 290.984C182.877 291.258 182.616 291.472 182.311 291.599C182.006 291.725 181.67 291.758 181.346 291.693C181.022 291.629 180.724 291.47 180.491 291.236C180.257 291.003 180.098 290.705 180.034 290.382C179.97 290.058 180.003 289.722 180.129 289.417C180.256 289.112 180.47 288.852 180.744 288.668C181.019 288.485 181.342 288.387 181.672 288.387C181.892 288.387 182.109 288.43 182.312 288.514C182.515 288.598 182.699 288.721 182.854 288.876C183.009 289.031 183.132 289.215 183.216 289.418C183.3 289.621 183.343 289.838 183.343 290.057Z" fill="#A5C5E8"/>
<path d="M192.847 290.057C192.846 290.387 192.748 290.71 192.565 290.984C192.381 291.258 192.12 291.472 191.815 291.599C191.51 291.725 191.174 291.758 190.85 291.693C190.526 291.629 190.228 291.47 189.995 291.236C189.761 291.003 189.602 290.705 189.538 290.382C189.474 290.058 189.507 289.722 189.633 289.417C189.76 289.112 189.974 288.852 190.248 288.668C190.523 288.485 190.846 288.387 191.176 288.387C191.396 288.387 191.613 288.43 191.816 288.514C192.018 288.598 192.203 288.721 192.358 288.876C192.513 289.031 192.636 289.215 192.72 289.418C192.804 289.621 192.847 289.838 192.847 290.057Z" fill="#A5C5E8"/>
<path d="M202.35 290.057C202.349 290.387 202.251 290.71 202.068 290.984C201.884 291.259 201.623 291.472 201.318 291.599C201.013 291.725 200.677 291.758 200.353 291.693C200.029 291.629 199.731 291.47 199.497 291.236C199.264 291.003 199.105 290.705 199.041 290.381C198.976 290.057 199.01 289.722 199.136 289.417C199.263 289.112 199.477 288.851 199.752 288.668C200.027 288.485 200.35 288.387 200.68 288.387C200.9 288.387 201.117 288.431 201.319 288.515C201.522 288.598 201.706 288.722 201.861 288.877C202.016 289.032 202.139 289.216 202.223 289.418C202.307 289.621 202.35 289.838 202.35 290.057Z" fill="#A5C5E8"/>
<path d="M154.833 300.443C154.833 300.774 154.735 301.096 154.552 301.371C154.368 301.645 154.107 301.859 153.802 301.986C153.497 302.112 153.161 302.145 152.837 302.081C152.513 302.017 152.215 301.858 151.982 301.624C151.748 301.391 151.589 301.093 151.524 300.77C151.46 300.446 151.493 300.11 151.619 299.805C151.746 299.5 151.96 299.239 152.235 299.056C152.509 298.873 152.832 298.775 153.163 298.775C153.382 298.775 153.599 298.818 153.802 298.902C154.005 298.985 154.189 299.108 154.344 299.263C154.499 299.418 154.622 299.602 154.706 299.805C154.79 300.007 154.833 300.224 154.833 300.443Z" fill="#A5C5E8"/>
<path d="M164.336 300.443C164.336 300.774 164.238 301.096 164.055 301.371C163.871 301.645 163.61 301.859 163.305 301.986C163 302.112 162.664 302.145 162.34 302.081C162.016 302.017 161.718 301.858 161.484 301.624C161.251 301.391 161.092 301.093 161.027 300.77C160.963 300.446 160.996 300.11 161.122 299.805C161.249 299.5 161.463 299.239 161.738 299.056C162.012 298.873 162.335 298.775 162.666 298.775C162.885 298.775 163.102 298.818 163.305 298.902C163.508 298.985 163.692 299.108 163.847 299.263C164.002 299.418 164.125 299.602 164.209 299.805C164.293 300.007 164.336 300.224 164.336 300.443Z" fill="#A5C5E8"/>
<path d="M173.839 300.443C173.839 300.774 173.741 301.096 173.557 301.371C173.374 301.646 173.113 301.86 172.808 301.986C172.502 302.112 172.167 302.145 171.842 302.081C171.518 302.016 171.221 301.857 170.987 301.624C170.753 301.39 170.594 301.093 170.53 300.769C170.466 300.445 170.499 300.109 170.625 299.804C170.752 299.499 170.966 299.239 171.241 299.056C171.516 298.872 171.839 298.774 172.169 298.775C172.389 298.775 172.606 298.818 172.808 298.902C173.011 298.986 173.195 299.108 173.35 299.263C173.505 299.418 173.628 299.602 173.712 299.805C173.796 300.007 173.839 300.224 173.839 300.443Z" fill="#A5C5E8"/>
<path d="M183.343 300.443C183.343 300.774 183.245 301.096 183.061 301.371C182.878 301.645 182.617 301.859 182.312 301.986C182.007 302.112 181.671 302.145 181.347 302.081C181.023 302.016 180.725 301.858 180.491 301.624C180.258 301.391 180.099 301.093 180.034 300.769C179.97 300.446 180.003 300.11 180.129 299.805C180.256 299.5 180.47 299.239 180.744 299.056C181.019 298.873 181.342 298.775 181.672 298.775C181.892 298.775 182.109 298.818 182.312 298.901C182.514 298.985 182.699 299.108 182.854 299.263C183.009 299.418 183.132 299.602 183.216 299.805C183.3 300.007 183.343 300.224 183.343 300.443Z" fill="#A5C5E8"/>
<path d="M192.847 300.443C192.847 300.774 192.749 301.096 192.565 301.371C192.382 301.645 192.121 301.859 191.816 301.986C191.51 302.112 191.175 302.145 190.85 302.081C190.526 302.016 190.229 301.857 189.995 301.624C189.762 301.391 189.602 301.093 189.538 300.769C189.474 300.446 189.507 300.11 189.633 299.805C189.759 299.5 189.974 299.239 190.248 299.056C190.523 298.873 190.846 298.775 191.176 298.775C191.396 298.775 191.613 298.818 191.816 298.902C192.018 298.985 192.202 299.108 192.357 299.263C192.513 299.418 192.636 299.602 192.72 299.805C192.803 300.007 192.847 300.224 192.847 300.443Z" fill="#A5C5E8"/>
<path d="M202.35 300.443C202.35 300.774 202.252 301.096 202.068 301.371C201.885 301.646 201.624 301.86 201.318 301.986C201.013 302.112 200.677 302.145 200.353 302.081C200.029 302.016 199.731 301.857 199.498 301.624C199.264 301.39 199.105 301.093 199.041 300.769C198.976 300.445 199.01 300.109 199.136 299.804C199.263 299.499 199.477 299.239 199.752 299.056C200.027 298.872 200.35 298.774 200.68 298.775C201.123 298.775 201.548 298.951 201.861 299.264C202.174 299.577 202.35 300.001 202.35 300.443Z" fill="#A5C5E8"/>
<path d="M400.966 180.701C400.966 180.944 400.894 181.182 400.759 181.384C400.624 181.586 400.432 181.743 400.207 181.836C399.983 181.929 399.735 181.953 399.497 181.906C399.258 181.859 399.039 181.742 398.867 181.57C398.695 181.398 398.578 181.179 398.531 180.941C398.484 180.703 398.508 180.455 398.601 180.231C398.694 180.007 398.852 179.815 399.054 179.68C399.256 179.545 399.494 179.473 399.737 179.473C400.063 179.473 400.375 179.602 400.606 179.833C400.836 180.063 400.966 180.375 400.966 180.701Z" fill="#5786C5"/>
<path d="M407.96 180.701C407.96 180.944 407.887 181.181 407.752 181.383C407.617 181.585 407.425 181.743 407.201 181.836C406.976 181.929 406.729 181.953 406.49 181.906C406.252 181.858 406.033 181.742 405.861 181.57C405.689 181.398 405.572 181.179 405.525 180.941C405.477 180.702 405.502 180.455 405.595 180.231C405.688 180.007 405.845 179.815 406.047 179.68C406.25 179.545 406.487 179.473 406.73 179.473C407.056 179.473 407.369 179.602 407.599 179.833C407.83 180.063 407.959 180.375 407.96 180.701Z" fill="#5786C5"/>
<path d="M414.954 180.701C414.954 180.944 414.882 181.182 414.747 181.384C414.611 181.586 414.419 181.743 414.195 181.836C413.97 181.929 413.723 181.954 413.484 181.906C413.246 181.859 413.027 181.742 412.855 181.57C412.683 181.398 412.566 181.179 412.518 180.941C412.471 180.702 412.495 180.455 412.588 180.231C412.682 180.006 412.839 179.814 413.042 179.679C413.244 179.545 413.482 179.473 413.725 179.473C414.051 179.473 414.363 179.602 414.594 179.833C414.824 180.063 414.954 180.375 414.954 180.701Z" fill="#5786C5"/>
<path d="M421.948 180.701C421.948 180.944 421.876 181.182 421.74 181.384C421.605 181.586 421.413 181.743 421.189 181.836C420.964 181.929 420.717 181.953 420.478 181.906C420.24 181.859 420.021 181.742 419.849 181.57C419.677 181.398 419.56 181.179 419.512 180.941C419.465 180.702 419.489 180.455 419.582 180.231C419.676 180.006 419.833 179.815 420.035 179.68C420.238 179.545 420.475 179.473 420.719 179.473C420.88 179.473 421.04 179.505 421.189 179.566C421.338 179.628 421.474 179.718 421.588 179.833C421.702 179.947 421.792 180.082 421.854 180.231C421.916 180.38 421.948 180.54 421.948 180.701Z" fill="#5786C5"/>
<path d="M428.943 180.701C428.943 180.944 428.871 181.181 428.736 181.384C428.601 181.586 428.409 181.743 428.184 181.836C427.959 181.929 427.712 181.954 427.474 181.906C427.235 181.859 427.016 181.742 426.844 181.57C426.672 181.398 426.555 181.179 426.508 180.941C426.46 180.703 426.484 180.456 426.577 180.231C426.67 180.007 426.828 179.815 427.03 179.68C427.232 179.545 427.47 179.473 427.713 179.473C428.039 179.473 428.352 179.602 428.582 179.833C428.813 180.063 428.943 180.375 428.943 180.701Z" fill="#5786C5"/>
<path d="M435.936 180.701C435.936 180.944 435.864 181.182 435.729 181.384C435.594 181.586 435.402 181.744 435.177 181.837C434.952 181.93 434.705 181.954 434.466 181.907C434.228 181.859 434.009 181.742 433.837 181.57C433.665 181.398 433.548 181.179 433.5 180.941C433.453 180.703 433.477 180.455 433.57 180.231C433.663 180.006 433.821 179.814 434.024 179.68C434.226 179.545 434.464 179.473 434.707 179.473C435.033 179.473 435.345 179.603 435.576 179.833C435.806 180.063 435.936 180.375 435.936 180.701Z" fill="#5786C5"/>
<path d="M400.966 188.345C400.966 188.588 400.894 188.825 400.759 189.028C400.624 189.23 400.432 189.387 400.208 189.48C399.983 189.573 399.736 189.598 399.497 189.55C399.259 189.503 399.04 189.386 398.868 189.214C398.696 189.043 398.578 188.824 398.531 188.585C398.484 188.347 398.508 188.1 398.601 187.875C398.694 187.651 398.852 187.459 399.054 187.324C399.256 187.189 399.494 187.117 399.737 187.117C400.063 187.117 400.375 187.247 400.606 187.477C400.836 187.707 400.966 188.019 400.966 188.345Z" fill="#5786C5"/>
<path d="M407.96 188.345C407.96 188.588 407.888 188.825 407.753 189.027C407.618 189.23 407.426 189.387 407.201 189.48C406.976 189.573 406.729 189.598 406.491 189.55C406.252 189.503 406.033 189.386 405.861 189.214C405.689 189.042 405.572 188.824 405.525 188.585C405.477 188.347 405.501 188.1 405.595 187.875C405.688 187.651 405.845 187.459 406.047 187.324C406.25 187.189 406.487 187.117 406.73 187.117C407.056 187.117 407.369 187.247 407.599 187.477C407.83 187.707 407.959 188.019 407.96 188.345Z" fill="#5786C5"/>
<path d="M414.954 188.345C414.954 188.588 414.882 188.826 414.747 189.028C414.612 189.23 414.42 189.387 414.195 189.481C413.97 189.574 413.723 189.598 413.484 189.551C413.246 189.503 413.027 189.386 412.855 189.214C412.683 189.043 412.566 188.824 412.518 188.585C412.471 188.347 412.495 188.1 412.588 187.875C412.682 187.651 412.839 187.459 413.042 187.324C413.244 187.189 413.482 187.117 413.725 187.117C414.051 187.117 414.363 187.247 414.594 187.477C414.824 187.707 414.954 188.019 414.954 188.345Z" fill="#5786C5"/>
<path d="M421.948 188.345C421.948 188.588 421.876 188.825 421.741 189.028C421.606 189.23 421.414 189.387 421.189 189.48C420.964 189.573 420.717 189.598 420.479 189.55C420.24 189.503 420.021 189.386 419.849 189.214C419.677 189.042 419.56 188.824 419.512 188.585C419.465 188.347 419.489 188.1 419.582 187.875C419.676 187.651 419.833 187.459 420.035 187.324C420.238 187.189 420.475 187.117 420.719 187.117C421.044 187.117 421.357 187.247 421.587 187.477C421.818 187.707 421.947 188.019 421.948 188.345Z" fill="#5786C5"/>
<path d="M428.943 188.345C428.943 188.588 428.871 188.825 428.736 189.027C428.601 189.23 428.409 189.387 428.184 189.48C427.96 189.573 427.712 189.598 427.474 189.55C427.235 189.503 427.016 189.386 426.844 189.215C426.672 189.043 426.555 188.824 426.508 188.586C426.46 188.347 426.484 188.1 426.577 187.876C426.67 187.651 426.828 187.459 427.03 187.324C427.232 187.189 427.47 187.117 427.713 187.117C428.039 187.117 428.352 187.246 428.582 187.477C428.813 187.707 428.942 188.019 428.943 188.345Z" fill="#5786C5"/>
<path d="M435.936 188.345C435.936 188.588 435.864 188.826 435.729 189.028C435.594 189.23 435.402 189.388 435.177 189.481C434.953 189.574 434.705 189.598 434.467 189.551C434.228 189.504 434.009 189.387 433.837 189.215C433.665 189.043 433.548 188.824 433.5 188.585C433.453 188.347 433.477 188.1 433.57 187.875C433.663 187.651 433.821 187.459 434.023 187.324C434.226 187.189 434.464 187.117 434.707 187.117C435.033 187.117 435.345 187.247 435.575 187.477C435.806 187.707 435.935 188.019 435.936 188.345Z" fill="#5786C5"/>
<path d="M400.966 195.989C400.966 196.232 400.894 196.47 400.759 196.672C400.624 196.874 400.432 197.031 400.207 197.124C399.982 197.217 399.735 197.241 399.497 197.194C399.258 197.146 399.039 197.029 398.867 196.858C398.695 196.686 398.578 196.467 398.531 196.229C398.484 195.99 398.508 195.743 398.601 195.519C398.694 195.294 398.852 195.102 399.054 194.968C399.256 194.833 399.494 194.761 399.737 194.761C400.063 194.761 400.376 194.89 400.606 195.121C400.837 195.351 400.966 195.663 400.966 195.989Z" fill="#5786C5"/>
<path d="M407.96 195.989C407.96 196.232 407.887 196.47 407.752 196.672C407.617 196.874 407.425 197.031 407.201 197.124C406.976 197.217 406.729 197.241 406.49 197.194C406.252 197.146 406.033 197.029 405.861 196.857C405.689 196.686 405.572 196.467 405.525 196.228C405.477 195.99 405.502 195.743 405.595 195.519C405.688 195.294 405.845 195.103 406.047 194.968C406.25 194.833 406.487 194.761 406.73 194.761C407.056 194.761 407.369 194.89 407.6 195.121C407.83 195.351 407.96 195.663 407.96 195.989Z" fill="#5786C5"/>
<path d="M414.954 195.989C414.954 196.232 414.882 196.47 414.746 196.672C414.611 196.874 414.419 197.031 414.194 197.124C413.97 197.217 413.723 197.242 413.484 197.194C413.245 197.147 413.026 197.03 412.854 196.858C412.683 196.686 412.566 196.467 412.518 196.228C412.471 195.99 412.495 195.743 412.588 195.518C412.682 195.294 412.839 195.102 413.042 194.967C413.244 194.832 413.482 194.76 413.725 194.761C413.886 194.761 414.046 194.792 414.195 194.854C414.344 194.916 414.48 195.007 414.594 195.121C414.708 195.235 414.799 195.37 414.86 195.519C414.922 195.668 414.954 195.828 414.954 195.989Z" fill="#5786C5"/>
<path d="M421.948 195.989C421.948 196.232 421.875 196.47 421.74 196.672C421.605 196.874 421.413 197.031 421.188 197.124C420.964 197.217 420.717 197.241 420.478 197.194C420.24 197.146 420.021 197.029 419.849 196.858C419.677 196.686 419.56 196.467 419.512 196.228C419.465 195.99 419.489 195.743 419.582 195.519C419.676 195.294 419.833 195.102 420.036 194.967C420.238 194.832 420.475 194.761 420.719 194.761C420.88 194.761 421.04 194.792 421.189 194.854C421.338 194.916 421.474 195.006 421.588 195.12C421.702 195.235 421.792 195.37 421.854 195.519C421.916 195.668 421.948 195.828 421.948 195.989Z" fill="#5786C5"/>
<path d="M428.943 195.989C428.943 196.232 428.871 196.47 428.735 196.672C428.6 196.874 428.408 197.031 428.184 197.124C427.959 197.217 427.712 197.241 427.473 197.194C427.235 197.147 427.016 197.03 426.844 196.858C426.672 196.686 426.555 196.467 426.508 196.229C426.46 195.991 426.484 195.744 426.577 195.519C426.67 195.295 426.828 195.103 427.03 194.968C427.232 194.833 427.47 194.761 427.713 194.761C428.039 194.761 428.352 194.89 428.582 195.12C428.813 195.351 428.943 195.663 428.943 195.989Z" fill="#5786C5"/>
<path d="M435.936 195.989C435.936 196.232 435.864 196.47 435.729 196.672C435.593 196.874 435.401 197.032 435.177 197.125C434.952 197.218 434.705 197.242 434.466 197.194C434.228 197.147 434.008 197.03 433.836 196.858C433.665 196.686 433.547 196.467 433.5 196.229C433.453 195.99 433.477 195.743 433.57 195.519C433.664 195.294 433.821 195.102 434.024 194.967C434.226 194.832 434.464 194.76 434.707 194.761C435.033 194.761 435.345 194.89 435.576 195.121C435.806 195.351 435.936 195.663 435.936 195.989Z" fill="#5786C5"/>
<path d="M400.966 203.633C400.966 203.876 400.894 204.114 400.759 204.316C400.624 204.518 400.432 204.675 400.207 204.768C399.983 204.861 399.735 204.886 399.497 204.838C399.258 204.791 399.039 204.674 398.867 204.502C398.695 204.33 398.578 204.111 398.531 203.873C398.484 203.635 398.508 203.388 398.601 203.163C398.694 202.939 398.852 202.747 399.054 202.612C399.256 202.477 399.494 202.405 399.737 202.405C399.898 202.405 400.058 202.437 400.207 202.498C400.357 202.56 400.492 202.65 400.606 202.765C400.72 202.879 400.811 203.014 400.873 203.163C400.934 203.312 400.966 203.472 400.966 203.633Z" fill="#5786C5"/>
<path d="M407.96 203.633C407.96 203.876 407.887 204.114 407.752 204.316C407.617 204.518 407.425 204.675 407.201 204.768C406.976 204.861 406.729 204.885 406.49 204.838C406.252 204.791 406.033 204.674 405.861 204.502C405.689 204.33 405.572 204.111 405.525 203.873C405.477 203.635 405.502 203.388 405.595 203.163C405.688 202.939 405.845 202.747 406.047 202.612C406.25 202.477 406.487 202.405 406.73 202.405C406.892 202.405 407.052 202.437 407.201 202.498C407.35 202.56 407.486 202.65 407.6 202.765C407.714 202.879 407.804 203.014 407.866 203.163C407.928 203.312 407.96 203.472 407.96 203.633Z" fill="#5786C5"/>
<path d="M414.954 203.633C414.954 203.876 414.882 204.114 414.747 204.316C414.611 204.518 414.419 204.676 414.195 204.769C413.97 204.862 413.723 204.886 413.484 204.838C413.246 204.791 413.026 204.674 412.855 204.502C412.683 204.33 412.566 204.111 412.518 203.873C412.471 203.634 412.495 203.387 412.588 203.163C412.682 202.938 412.839 202.746 413.042 202.612C413.244 202.477 413.482 202.405 413.725 202.405C413.886 202.405 414.046 202.437 414.195 202.498C414.344 202.56 414.48 202.651 414.594 202.765C414.708 202.879 414.799 203.014 414.86 203.163C414.922 203.312 414.954 203.472 414.954 203.633Z" fill="#5786C5"/>
<path d="M421.948 203.633C421.948 203.876 421.875 204.114 421.74 204.316C421.605 204.518 421.413 204.675 421.189 204.768C420.964 204.861 420.717 204.886 420.478 204.838C420.24 204.791 420.021 204.674 419.849 204.502C419.677 204.33 419.56 204.111 419.512 203.873C419.465 203.634 419.489 203.387 419.582 203.163C419.676 202.938 419.833 202.747 420.035 202.612C420.238 202.477 420.475 202.405 420.719 202.405C420.88 202.405 421.04 202.437 421.189 202.498C421.338 202.56 421.474 202.65 421.588 202.765C421.702 202.879 421.793 203.014 421.854 203.163C421.916 203.312 421.948 203.472 421.948 203.633Z" fill="#5786C5"/>
<path d="M428.943 203.633C428.943 203.876 428.871 204.114 428.736 204.316C428.6 204.518 428.409 204.675 428.184 204.768C427.959 204.861 427.712 204.886 427.474 204.838C427.235 204.791 427.016 204.674 426.844 204.502C426.672 204.33 426.555 204.112 426.508 203.873C426.46 203.635 426.484 203.388 426.577 203.163C426.67 202.939 426.828 202.747 427.03 202.612C427.232 202.477 427.47 202.405 427.713 202.405C427.875 202.405 428.034 202.437 428.184 202.498C428.333 202.56 428.468 202.65 428.583 202.764C428.697 202.879 428.787 203.014 428.849 203.163C428.911 203.312 428.943 203.472 428.943 203.633Z" fill="#5786C5"/>
<path d="M435.936 203.633C435.936 203.876 435.864 204.114 435.729 204.316C435.594 204.518 435.402 204.676 435.177 204.769C434.952 204.862 434.705 204.886 434.466 204.839C434.228 204.791 434.009 204.674 433.837 204.502C433.665 204.33 433.548 204.111 433.5 203.873C433.453 203.635 433.477 203.387 433.57 203.163C433.663 202.938 433.821 202.747 434.024 202.612C434.226 202.477 434.464 202.405 434.707 202.405C435.033 202.405 435.345 202.534 435.576 202.765C435.806 202.995 435.936 203.308 435.936 203.633Z" fill="#5786C5"/>
<path d="M295.727 368.616C295.727 368.616 286.375 321.723 294.892 324.894C303.41 328.065 304.578 364.278 300.737 369.451" fill="#5786C5"/>
<path d="M295.727 368.616C295.727 368.616 286.375 321.723 294.892 324.894C303.41 328.065 304.578 364.278 300.737 369.451" stroke="#2861A4" stroke-width="1.19242" stroke-miterlimit="10"/>
<path d="M294.82 370.343C294.82 370.343 293.155 351.195 283.991 352.193C274.826 353.193 288.157 368.844 290.489 370.343" fill="#A5C5E8"/>
<path d="M294.82 370.343C294.82 370.343 293.155 351.195 283.991 352.193C274.826 353.193 288.157 368.844 290.489 370.343" stroke="#2861A4" stroke-width="1.19242" stroke-linecap="round" stroke-linejoin="round"/>
<path d="M284.156 344.368C284.156 344.368 281.657 351.86 288.322 350.529C294.988 349.196 293.051 348.946 293.051 348.946" fill="#A5C5E8"/>
<path d="M284.156 344.368C284.156 344.368 281.657 351.86 288.322 350.529C294.988 349.196 293.051 348.946 293.051 348.946" stroke="#2861A4" stroke-width="1.19242" stroke-miterlimit="10"/>
<path d="M296.821 370.175C296.821 370.175 294.654 341.537 291.489 340.372C288.322 339.207 282.991 341.704 284.156 344.368C285.324 347.032 293.155 370.343 293.155 370.343" fill="#DCE8F6"/>
<path d="M296.821 370.175C296.821 370.175 294.654 341.537 291.489 340.372C288.322 339.207 282.991 341.704 284.156 344.368C285.324 347.032 293.155 370.343 293.155 370.343" stroke="#2861A4" stroke-width="1.19242" stroke-linecap="round" stroke-linejoin="round"/>
<path d="M315.768 338.745C315.768 338.745 317.939 347.757 313.764 350.761C309.589 353.764 306.416 348.258 306.416 348.258L305.748 338.412" fill="#A5C5E8"/>
<path d="M315.768 338.745C315.768 338.745 317.939 347.757 313.764 350.761C309.589 353.764 306.416 348.258 306.416 348.258L305.748 338.412" stroke="#2861A4" stroke-width="1.19242" stroke-miterlimit="10"/>
<path d="M298.566 369.617C298.566 369.617 300.905 331.569 309.088 333.905C317.271 336.242 315.767 340.747 315.767 340.747C315.767 340.747 313.764 338.912 312.595 341.248C311.426 343.585 305.413 370.286 305.413 370.286" fill="#DCE8F6"/>
<path d="M298.566 369.617C298.566 369.617 300.905 331.569 309.088 333.905C317.271 336.242 315.767 340.747 315.767 340.747C315.767 340.747 313.764 338.912 312.595 341.248C311.426 343.585 305.413 370.286 305.413 370.286" stroke="#2861A4" stroke-width="1.19242" stroke-linecap="round" stroke-linejoin="round"/>
<path d="M302.251 369.692C302.251 369.692 305.594 350.764 314.636 352.565C323.677 354.365 309.022 368.784 306.566 370.073" fill="#A5C5E8"/>
<path d="M302.251 369.692C302.251 369.692 305.594 350.764 314.636 352.565C323.677 354.365 309.022 368.784 306.566 370.073" stroke="#2861A4" stroke-width="1.19242" stroke-miterlimit="10"/>
<path d="M294.725 327.23C294.725 327.23 299.113 354.589 297.61 369.609" stroke="#2861A4" stroke-width="0.794946" stroke-linecap="round" stroke-linejoin="round"/>
<path d="M288.379 341.916C288.379 341.916 294.056 361.774 294.558 368.616" stroke="#2861A4" stroke-width="0.794946" stroke-linecap="round" stroke-linejoin="round"/>
<path d="M283.87 354.766C283.87 354.766 290.549 364.779 291.552 369.117" stroke="#2861A4" stroke-width="0.794946" stroke-linecap="round" stroke-linejoin="round"/>
<path d="M309.422 336.576C309.422 336.576 302.574 357.101 300.737 368.283" stroke="#2861A4" stroke-width="0.794946" stroke-linecap="round" stroke-linejoin="round"/>
<path d="M303.99 369.497L303.83 369.406C307.63 362.636 312.969 355.615 313.022 355.544L313.169 355.656C313.115 355.726 307.785 362.739 303.99 369.497Z" stroke="#2861A4" stroke-width="0.794946" stroke-linecap="round" stroke-linejoin="round"/>
<path d="M313.097 368.785H285.484V374.958H313.097V368.785Z" fill="#5786C5" stroke="#2861A4" stroke-width="1.19242" stroke-miterlimit="10"/>
<path d="M531.471 279.066V275.415H528.547C528.309 274.217 527.836 273.077 527.156 272.062L529.224 269.995L526.641 267.414L524.573 269.48C523.557 268.8 522.417 268.328 521.217 268.09V265.169H517.564V268.09C516.364 268.328 515.224 268.8 514.208 269.48L512.14 267.414L509.556 269.995L511.624 272.062C510.944 273.077 510.472 274.217 510.233 275.415H507.31V279.066H510.233C510.472 280.264 510.944 281.403 511.624 282.419L509.556 284.485L512.14 287.067L514.208 285.001C515.224 285.681 516.364 286.153 517.564 286.391V289.311H521.217V286.391C522.417 286.153 523.557 285.68 524.573 285.001L526.641 287.067L529.224 284.485L527.156 282.419C527.836 281.404 528.309 280.264 528.547 279.066H531.471ZM519.391 282.414C518.367 282.414 517.365 282.111 516.514 281.542C515.662 280.974 514.999 280.166 514.607 279.221C514.215 278.275 514.112 277.235 514.312 276.231C514.511 275.228 515.004 274.306 515.729 273.582C516.453 272.859 517.375 272.366 518.379 272.166C519.384 271.966 520.425 272.069 521.371 272.46C522.317 272.852 523.126 273.515 523.695 274.366C524.264 275.217 524.567 276.217 524.567 277.24C524.567 278.612 524.022 279.928 523.051 280.898C522.08 281.869 520.764 282.414 519.391 282.414Z" fill="#A5C5E8"/>
<path d="M414.012 183.063V180.503H411.962C411.795 179.663 411.463 178.864 410.987 178.152L412.437 176.703L410.625 174.893L409.175 176.342C408.463 175.865 407.663 175.534 406.822 175.367V173.319H404.26V175.367C403.419 175.534 402.619 175.865 401.907 176.342L400.457 174.893L398.646 176.703L400.096 178.152C399.619 178.864 399.287 179.663 399.12 180.503H397.07V183.063H399.12C399.287 183.904 399.619 184.703 400.096 185.415L398.646 186.863L400.457 188.674L401.907 187.225C402.619 187.702 403.419 188.033 404.26 188.2V190.248H406.822V188.2C407.663 188.033 408.463 187.701 409.175 187.225L410.625 188.674L412.437 186.863L410.987 185.415C411.463 184.703 411.795 183.904 411.962 183.063H414.012ZM405.541 185.411C404.823 185.411 404.121 185.198 403.524 184.8C402.927 184.401 402.462 183.835 402.187 183.172C401.912 182.509 401.84 181.78 401.98 181.076C402.12 180.372 402.466 179.726 402.974 179.218C403.481 178.711 404.128 178.365 404.833 178.225C405.537 178.085 406.267 178.157 406.93 178.432C407.594 178.706 408.161 179.171 408.56 179.768C408.959 180.364 409.172 181.066 409.172 181.783C409.171 182.745 408.789 183.668 408.108 184.348C407.428 185.029 406.504 185.411 405.541 185.411Z" fill="#5786C5"/>
<path d="M414.799 349.784C414.799 350.639 414.631 351.486 414.303 352.277C413.976 353.067 413.496 353.786 412.89 354.391C412.285 354.995 411.566 355.475 410.775 355.802C409.984 356.13 409.136 356.298 408.28 356.298H361.339C360.483 356.298 359.636 356.13 358.845 355.802C358.054 355.475 357.335 354.995 356.73 354.39C356.124 353.785 355.644 353.067 355.317 352.277C354.989 351.486 354.821 350.639 354.821 349.784C354.821 348.928 354.989 348.081 355.317 347.29C355.644 346.5 356.124 345.782 356.729 345.177C357.335 344.572 358.053 344.092 358.844 343.764C359.635 343.437 360.483 343.269 361.339 343.269H408.28C409.136 343.269 409.984 343.437 410.775 343.764C411.566 344.092 412.285 344.571 412.89 345.176C413.496 345.781 413.976 346.5 414.303 347.29C414.631 348.081 414.799 348.928 414.799 349.784Z" fill="white" stroke="#2861A4" stroke-width="1.19242" stroke-linecap="round" stroke-linejoin="round"/>
<path d="M414.799 312.26C414.799 313.115 414.631 313.963 414.303 314.753C413.976 315.544 413.496 316.262 412.89 316.867C412.285 317.472 411.566 317.952 410.775 318.279C409.984 318.606 409.136 318.775 408.28 318.774H361.339C360.483 318.774 359.636 318.606 358.845 318.279C358.054 317.951 357.335 317.472 356.729 316.867C356.124 316.262 355.644 315.543 355.317 314.753C354.989 313.963 354.821 313.115 354.821 312.26C354.821 311.404 354.989 310.557 355.317 309.767C355.644 308.976 356.124 308.258 356.73 307.653C357.335 307.048 358.054 306.569 358.845 306.241C359.636 305.914 360.483 305.746 361.339 305.746H408.28C409.136 305.746 409.984 305.914 410.775 306.241C411.566 306.568 412.285 307.048 412.89 307.653C413.496 308.258 413.976 308.976 414.303 309.767C414.631 310.557 414.799 311.404 414.799 312.26Z" fill="white" stroke="#2861A4" stroke-width="1.19242" stroke-linecap="round" stroke-linejoin="round"/>
<path d="M386.42 314.261C386.421 314.672 386.34 315.079 386.183 315.458C386.025 315.838 385.795 316.183 385.504 316.473C385.214 316.764 384.868 316.994 384.489 317.151C384.109 317.308 383.702 317.389 383.291 317.389H360.755C360.344 317.389 359.937 317.308 359.557 317.151C359.177 316.994 358.832 316.764 358.541 316.473C358.251 316.183 358.02 315.838 357.863 315.458C357.706 315.079 357.625 314.672 357.625 314.261C357.625 313.85 357.706 313.444 357.863 313.064C358.021 312.685 358.251 312.34 358.542 312.049C358.832 311.759 359.177 311.529 359.557 311.371C359.937 311.214 360.344 311.134 360.755 311.134H383.291C383.702 311.134 384.109 311.214 384.488 311.372C384.868 311.529 385.213 311.759 385.504 312.049C385.795 312.34 386.025 312.685 386.182 313.064C386.34 313.444 386.421 313.85 386.42 314.261Z" fill="#A5C5E8"/>
<path d="M387.499 351.365C387.499 351.775 387.418 352.182 387.261 352.562C387.104 352.941 386.873 353.286 386.583 353.577C386.292 353.867 385.947 354.097 385.567 354.255C385.187 354.412 384.78 354.493 384.369 354.492H361.833C361.422 354.493 361.015 354.412 360.635 354.255C360.255 354.097 359.91 353.867 359.62 353.577C359.329 353.286 359.099 352.941 358.941 352.562C358.784 352.182 358.703 351.775 358.704 351.365C358.703 350.954 358.784 350.547 358.941 350.168C359.099 349.788 359.329 349.443 359.62 349.153C359.91 348.862 360.256 348.632 360.635 348.475C361.015 348.318 361.422 348.237 361.833 348.237H384.369C384.78 348.237 385.187 348.318 385.567 348.475C385.947 348.632 386.292 348.862 386.582 349.153C386.873 349.443 387.104 349.788 387.261 350.168C387.418 350.547 387.499 350.954 387.499 351.365Z" fill="#A5C5E8"/>
<path d="M559.012 335.191C548.929 335.191 542.125 334.718 541.219 334.652L542.166 321.754C542.848 321.805 606.554 326.183 640.545 306.84C636.369 303.779 632.493 300.328 628.971 296.534C617.101 283.703 612.073 269.843 615.521 259.458C618.536 250.377 625.02 245.159 633.311 245.142H633.349C646.138 245.142 660.923 258.179 666.323 274.227C670.078 285.386 668.749 295.999 662.771 304.629C672.179 308.467 682.828 310.111 693.679 307.437C718.269 301.379 737.616 274.579 749.629 229.934L762.127 233.291C755.124 259.317 745.609 279.977 733.843 294.698C723.171 308.052 710.7 316.563 696.777 319.993C684.521 323.012 671.261 321.917 658.433 316.824C656.555 316.078 654.693 315.25 652.849 314.338C627.217 332.411 583.47 335.191 559.012 335.191ZM633.351 258.074H633.338C632.223 258.076 629.613 258.081 627.805 263.53C626.261 268.179 628.962 277.473 638.474 287.755C642.275 291.829 646.549 295.434 651.205 298.496C656.701 291.642 655.958 284 654.056 278.349C650.211 266.924 639.775 258.074 633.351 258.074Z" fill="#204283"/>
<path d="M659.003 301.41C676.965 275.76 634.229 236.045 625.04 263.723C615.019 293.909 715.049 375.485 752.774 235.285" stroke="#2861A4" stroke-width="1.98736" stroke-linecap="round" stroke-linejoin="round"/>
<path d="M548.933 327.211C548.933 327.211 613.679 331.967 647.805 311.191" stroke="#2861A4" stroke-width="1.98736" stroke-linecap="round" stroke-linejoin="round"/>
<path d="M513.837 355.025L517.535 362.876L510.1 364.993L506.672 357.026" fill="white"/>
<path d="M513.837 355.025L517.535 362.876L510.1 364.993L506.672 357.026" stroke="#2861A4" stroke-width="1.19242" stroke-linecap="round" stroke-linejoin="round"/>
<path d="M467.384 359.99L469.464 368.264L462.145 370.151L461.837 360.644" fill="white"/>
<path d="M467.384 359.99L469.464 368.264L462.145 370.151L461.837 360.644" stroke="#2861A4" stroke-width="1.19242" stroke-linecap="round" stroke-linejoin="round"/>
<path d="M475.039 261.629C475.039 261.629 485.028 267.639 487.842 276.074C490.656 284.509 493.611 321.483 498.253 327.651C502.896 333.819 518.035 353.986 518.035 353.986L506.441 360.644C506.441 360.644 489.108 336.982 485.028 330.129C480.948 323.276 474.195 292.347 474.195 292.347C474.195 292.347 465.473 316.278 465.051 326.118C464.629 335.959 471.66 362.491 471.66 362.491L459.988 362.837C459.988 362.837 452.67 337.892 451.966 324.993C451.263 312.096 460.267 274.14 460.267 274.14" fill="#204283"/>
<path d="M437.314 283.237C439.389 276.71 440.391 269.095 438.53 261.137C433.254 238.574 426.713 249.328 426.713 255.444C426.713 255.444 428.881 268.215 427.715 281.067C429.452 282.308 432.443 283.558 437.314 283.237Z" fill="#A5C5E8" stroke="#2861A4" stroke-width="1.19242" stroke-linecap="round" stroke-linejoin="round"/>
<path d="M427.715 281.067C426.991 289.039 424.986 297.042 420.381 302.047L426.079 303.523C426.079 303.523 433.505 295.216 437.314 283.237C432.443 283.558 429.452 282.308 427.715 281.067Z" fill="white" stroke="#2861A4" stroke-width="1.19242" stroke-linecap="round" stroke-linejoin="round"/>
<path d="M425.445 255.233C425.445 255.233 427.556 243.001 440.429 244.689C453.302 246.376 475.039 261.559 475.039 261.559C475.039 261.559 467.442 277.164 461.111 277.375C454.78 277.585 425.445 265.144 425.445 256.076" fill="#204283"/>
<path d="M421.225 302.574L418.798 306.897L413.733 311.115L425.024 311.853L423.968 308.479L425.235 303.418" fill="#A5C5E8"/>
<path d="M421.225 302.574L418.798 306.897L413.733 311.115L425.024 311.853L423.968 308.479L425.235 303.418" stroke="#2861A4" stroke-width="1.19242" stroke-linecap="round" stroke-linejoin="round"/>
<path d="M439.901 266.777C439.901 266.777 434.521 257.904 436.631 252.702C438.741 247.501 440.755 247.158 440.755 247.158C440.755 247.158 431.46 243.213 429.561 251.12C427.661 259.028 434.468 264.406 434.468 264.406L439.901 266.777Z" fill="#A5C5E8"/>
<path d="M442.223 264.758C442.223 264.758 434.309 247.923 447.323 249.187C458.179 250.243 464.282 261.54 462.453 264.422C460.624 267.304 442.223 264.758 442.223 264.758Z" fill="#A5C5E8"/>
<path d="M511.15 371.039L511.814 369.862L519.943 367.972L521.013 370.109C521.013 370.109 497.604 376.698 496.9 374.996C496.674 374.453 496.488 374.144 496.485 373.852L511.15 371.039Z" fill="#A5C5E8" stroke="#2861A4" stroke-width="1.19242" stroke-linecap="round" stroke-linejoin="round"/>
<path d="M511.15 371.039L496.485 373.852C496.479 373.23 495.338 372.746 498.417 370.209C500.088 368.833 503.974 368.137 505.195 366.862C506.469 365.512 507.47 363.929 508.141 362.199C508.141 362.199 511.928 365.535 513.579 364.518C515.231 363.501 517.207 362.504 517.207 362.504L519.943 367.972L511.814 369.862L511.15 371.039Z" fill="#A5C5E8" stroke="#2861A4" stroke-width="1.19242" stroke-linecap="round" stroke-linejoin="round"/>
<path d="M462.407 374.097L463.28 373.066L471.619 372.741L472.267 375.041C472.267 375.041 448.036 377.104 447.664 375.3C447.546 374.724 447.422 374.385 447.473 374.098L462.407 374.097Z" fill="#A5C5E8" stroke="#2861A4" stroke-width="1.19242" stroke-linecap="round" stroke-linejoin="round"/>
<path d="M462.406 374.097L447.473 374.098C447.584 373.487 446.556 372.796 450.058 370.884C451.957 369.848 455.906 369.896 457.346 368.874C458.852 367.789 460.133 366.422 461.117 364.849C461.117 364.849 464.208 368.838 466.022 368.151C467.836 367.463 469.964 366.854 469.964 366.854L471.619 372.741L463.28 373.066L462.406 374.097Z" fill="#A5C5E8" stroke="#2861A4" stroke-width="1.19242" stroke-linecap="round" stroke-linejoin="round"/>
<path d="M428.717 248.906L433.835 249.117C433.835 249.117 435.641 251.36 435.259 253.783C434.89 256.129 433.386 257.394 431.777 257.579C430.168 257.763 429.139 254.231 429.139 254.231" fill="white"/>
<path d="M428.717 248.906L433.835 249.117C433.835 249.117 435.641 251.36 435.259 253.783C434.89 256.129 433.386 257.394 431.777 257.579C430.168 257.763 429.139 254.231 429.139 254.231" stroke="#2861A4" stroke-width="1.19242" stroke-linecap="round" stroke-linejoin="round"/>
<path d="M419.326 254.108C419.326 254.108 425.798 267.042 428.612 263.387C431.426 259.732 430.511 249.328 430.511 249.328C430.511 249.328 424.954 248.485 419.326 254.108Z" fill="white" stroke="#2861A4" stroke-width="1.19242" stroke-linecap="round" stroke-linejoin="round"/>
<path d="M426.431 253.124L428.612 254.284C428.612 254.284 428.119 253.054 428.858 252.737C429.597 252.421 431.108 253.335 430.722 254.882L432.199 252.562L430.476 248.169" fill="#204283"/>
<path d="M430.722 248.204C430.722 248.204 430.371 241.842 424.145 242.686C420.519 243.176 413.136 249.469 418.623 254.952C418.623 254.952 427.486 256.779 430.722 248.204Z" fill="#204283"/>
<path d="M456.89 276.601C456.89 276.601 475.603 272.102 474.688 261.629L478.697 264.512C478.697 264.512 477.396 270.438 473.22 273.698C469.377 276.696 464.148 278.316 459.774 278.078L456.89 276.601Z" fill="white" stroke="#2861A4" stroke-width="1.19242" stroke-linecap="round" stroke-linejoin="round"/>
<path d="M425.267 277.545L424.158 283.133L439.097 286.093L440.206 280.505L425.267 277.545Z" fill="#A5C5E8" stroke="#2861A4" stroke-width="1.19242" stroke-linecap="round" stroke-linejoin="round"/>
<path d="M403.417 283.029C400.626 283.008 397.856 283.497 395.242 284.474C395.206 284.473 395.17 284.469 395.134 284.469C393.538 284.469 392.009 285.46 390.596 287.271C389.331 288.454 388.497 289.822 388.226 291.295C384.548 299.238 382.101 313.333 382.101 329.401C382.101 354.215 387.936 374.332 395.134 374.332C395.811 374.332 401.173 374.638 403.417 374.638C411.86 374.638 418.707 370.47 418.707 365.33V292.338C418.707 287.197 411.86 283.029 403.417 283.029Z" fill="white" stroke="#2861A4" stroke-width="1.19242" stroke-linecap="round" stroke-linejoin="round"/>
<path d="M425.547 329.401C425.547 354.215 419.711 374.332 412.513 374.332C405.315 374.332 399.479 354.215 399.479 329.401C399.479 304.585 405.315 284.469 412.513 284.469C419.711 284.469 425.547 304.585 425.547 329.401Z" fill="#A5C5E8" stroke="#2861A4" stroke-width="1.19242" stroke-miterlimit="10"/>
<path d="M483.82 328.978C483.82 326.352 484.864 323.833 486.723 321.976C488.582 320.119 491.102 319.076 493.73 319.076H540.67C543.298 319.076 545.819 320.119 547.677 321.976C549.536 323.833 550.58 326.352 550.58 328.978C550.58 331.604 549.536 334.123 547.677 335.98C545.819 337.837 543.298 338.88 540.67 338.88H493.73C491.102 338.88 488.581 337.837 486.723 335.98C484.864 334.123 483.82 331.604 483.82 328.978Z" fill="white" stroke="#2861A4" stroke-width="1.19242" stroke-linecap="round" stroke-linejoin="round"/>
<path d="M544.59 321.396C544.432 323.549 543.464 325.562 541.882 327.031C540.3 328.501 538.22 329.318 536.06 329.319H495.509C493.797 329.321 492.123 328.808 490.707 327.846C490.691 328.055 490.674 328.264 490.674 328.478C490.675 330.747 491.577 332.923 493.182 334.527C494.788 336.132 496.966 337.033 499.237 337.033H539.787C541.619 337.033 543.403 336.446 544.877 335.358C546.35 334.27 547.435 332.739 547.973 330.989C548.51 329.238 548.472 327.362 547.863 325.636C547.254 323.909 546.107 322.423 544.59 321.396Z" fill="#A5C5E8"/>
<path d="M462.958 325.33C462.957 322.9 463.436 320.494 464.366 318.249C465.297 316.004 466.661 313.965 468.38 312.246C470.1 310.528 472.141 309.165 474.387 308.236C476.634 307.306 479.042 306.827 481.473 306.827C483.905 306.827 486.313 307.306 488.559 308.235C490.806 309.165 492.847 310.528 494.566 312.246C496.286 313.965 497.649 316.004 498.58 318.249C499.51 320.494 499.989 322.9 499.988 325.33V332.625C499.989 335.055 499.51 337.461 498.58 339.706C497.65 341.951 496.286 343.991 494.567 345.709C492.847 347.427 490.806 348.79 488.559 349.72C486.313 350.65 483.905 351.128 481.473 351.128C479.042 351.128 476.634 350.65 474.387 349.72C472.141 348.79 470.099 347.427 468.38 345.709C466.66 343.991 465.297 341.951 464.366 339.706C463.436 337.461 462.957 335.055 462.958 332.625V325.33Z" fill="white" stroke="#2861A4" stroke-width="1.19242" stroke-linecap="round" stroke-linejoin="round"/>
<path d="M489.177 339.735C486.982 339.735 484.809 339.303 482.781 338.464C480.753 337.624 478.91 336.394 477.358 334.843C475.806 333.292 474.575 331.451 473.735 329.425C472.895 327.398 472.463 325.226 472.463 323.033V316.448C472.461 314.224 472.904 312.022 473.767 309.972C471.216 311.434 469.097 313.543 467.624 316.086C466.151 318.629 465.375 321.515 465.376 324.453V331.039C465.376 334.895 466.712 338.632 469.157 341.617C471.601 344.601 475.003 346.648 478.786 347.411C482.569 348.173 486.5 347.605 489.911 345.801C493.322 343.997 496.004 341.07 497.5 337.515C494.969 338.973 492.098 339.738 489.177 339.735Z" fill="#A5C5E8"/>
<path d="M460.35 294.06H423.32C420.372 294.057 417.458 294.682 414.77 295.892C407.758 310.993 404.523 344.709 414.772 362.064C417.459 363.273 420.373 363.897 423.32 363.895H460.35C463.09 363.895 465.803 363.356 468.334 362.309C470.865 361.262 473.165 359.726 475.103 357.79C477.04 355.855 478.577 353.557 479.625 351.028C480.674 348.498 481.213 345.788 481.213 343.05V314.906C481.213 312.168 480.674 309.457 479.625 306.928C478.577 304.399 477.04 302.101 475.103 300.165C473.165 298.229 470.865 296.694 468.334 295.646C465.803 294.599 463.09 294.059 460.35 294.06Z" fill="white" stroke="#2861A4" stroke-width="1.19242" stroke-linecap="round" stroke-linejoin="round"/>
<path d="M473.558 350.81H440.28C437.632 350.812 435.013 350.252 432.598 349.165C424.951 336.215 425.662 313.137 429.728 297.906H424.565C421.916 297.904 419.297 298.466 416.881 299.552C410.58 313.124 407.673 343.423 416.883 359.019C419.298 360.105 421.917 360.666 424.565 360.664H457.843C461.233 360.665 464.56 359.748 467.469 358.009C470.379 356.27 472.762 353.775 474.365 350.79C474.097 350.802 473.828 350.81 473.558 350.81Z" fill="#A5C5E8"/>
<path d="M452.384 280.91C453.202 276.052 453.524 265.197 451.945 259.872C447.614 245.264 441.207 254.296 441.207 259.692C441.207 259.692 441.919 269.952 441.443 281.328C445.094 281.62 448.767 281.48 452.384 280.91Z" fill="#A5C5E8" stroke="#2861A4" stroke-width="1.19242" stroke-linecap="round" stroke-linejoin="round"/>
<path d="M441.443 281.328C441.059 290.526 439.868 301.453 434.49 307.299L438.572 308.453C438.572 308.453 449.791 296.321 452.385 280.91C448.767 281.48 445.094 281.621 441.443 281.328Z" fill="white" stroke="#2861A4" stroke-width="1.19242" stroke-linecap="round" stroke-linejoin="round"/>
<path d="M454.287 280.28H438.88V286.746H454.287V280.28Z" fill="#A5C5E8" stroke="#2861A4" stroke-width="1.19242" stroke-linecap="round" stroke-linejoin="round"/>
<path d="M439.385 307.137L434.957 305.417C434.725 305.455 434.5 305.522 434.286 305.617C433.955 305.768 434.074 306.844 434.074 306.844C434.074 306.844 431.406 308.724 430.146 310.745C428.885 312.767 426.288 314.199 427.315 314.651C428.344 315.105 429.16 313.256 429.584 313.688C429.796 313.904 429.181 315.649 428.205 317.198C427.23 318.748 425.895 320.099 426.683 320.262C428.257 320.588 431.239 315.564 431.239 315.564C431.239 315.564 430.641 317.332 429.896 319.132C429.097 321.064 428.176 323.05 429.098 323.411C429.894 323.724 430.608 321.94 431.547 320.255C432.176 319.152 432.868 318.085 433.619 317.061C433.619 317.061 431.617 323.068 432.505 322.724C433.394 322.38 435.058 316.993 435.429 317.147C435.801 317.301 434.772 321.128 435.422 321.046C436.072 320.964 438.072 314.485 438.072 314.485C438.072 314.485 439.773 310.9 439.059 308.622C439.059 308.622 440.145 307.758 439.385 307.137Z" fill="#204283"/>
<path d="M488.208 271.063C488.371 271.318 488.483 271.603 488.537 271.902C488.59 272.2 488.584 272.506 488.519 272.803C488.454 273.099 488.331 273.379 488.158 273.628C487.984 273.877 487.763 274.089 487.508 274.253L482.253 277.615C481.997 277.778 481.712 277.89 481.413 277.943C481.114 277.997 480.808 277.991 480.511 277.926C480.215 277.861 479.934 277.738 479.685 277.564C479.436 277.391 479.223 277.17 479.06 276.915L472.207 266.218C472.043 265.963 471.931 265.678 471.878 265.379C471.824 265.081 471.83 264.774 471.895 264.478C471.96 264.182 472.083 263.901 472.257 263.653C472.43 263.404 472.651 263.192 472.907 263.028L478.162 259.666C478.417 259.503 478.703 259.391 479.002 259.338C479.3 259.284 479.607 259.29 479.903 259.355C480.2 259.42 480.48 259.543 480.729 259.716C480.978 259.89 481.191 260.111 481.354 260.366L488.208 271.063Z" fill="#A5C5E8" stroke="#2861A4" stroke-width="1.19242" stroke-linecap="round" stroke-linejoin="round"/>
<path d="M474.849 269.807C474.849 269.807 481.473 269.545 484.273 264.6L474.849 269.807Z" fill="#A5C5E8"/>
<path d="M474.849 269.807C474.849 269.807 481.473 269.545 484.273 264.6" stroke="#2861A4" stroke-width="1.19242" stroke-linecap="round" stroke-linejoin="round"/>
<path d="M472.069 229.725C472.069 230.684 471.88 231.634 471.512 232.52C471.145 233.406 470.606 234.211 469.928 234.89C469.249 235.568 468.443 236.106 467.556 236.473C466.67 236.84 465.719 237.029 464.759 237.029H440.394C438.456 237.029 436.597 236.259 435.226 234.889C433.855 233.52 433.085 231.662 433.085 229.725C433.085 227.788 433.855 225.93 435.226 224.56C436.597 223.191 438.456 222.421 440.394 222.421H464.759C465.719 222.421 466.67 222.61 467.556 222.977C468.443 223.344 469.249 223.882 469.928 224.56C470.606 225.238 471.145 226.044 471.512 226.93C471.88 227.816 472.069 228.766 472.069 229.725Z" fill="#204283"/>
<path d="M441.748 229.725H433.085V236.999H441.748V229.725Z" fill="#204283"/>
<path d="M196.161 216.785H160.723C154.851 216.785 150.091 222.205 150.091 228.891C150.091 235.576 154.851 240.996 160.723 240.996H196.161C196.477 240.996 196.79 240.978 197.1 240.947H206.792V228.891C206.792 222.205 202.032 216.785 196.161 216.785Z" fill="#5786C5"/>
<path d="M446.621 229.484C446.621 229.698 446.557 229.908 446.438 230.086C446.319 230.264 446.15 230.402 445.952 230.484C445.755 230.566 445.537 230.587 445.327 230.546C445.117 230.504 444.924 230.401 444.772 230.249C444.621 230.098 444.518 229.905 444.476 229.695C444.434 229.485 444.456 229.268 444.538 229.07C444.62 228.872 444.758 228.703 444.936 228.585C445.115 228.466 445.324 228.402 445.538 228.402C445.68 228.402 445.821 228.43 445.953 228.485C446.084 228.539 446.203 228.619 446.304 228.719C446.404 228.82 446.484 228.939 446.539 229.07C446.593 229.202 446.621 229.342 446.621 229.484Z" fill="white"/>
<path d="M453.66 229.484C453.66 229.698 453.596 229.908 453.477 230.086C453.358 230.264 453.189 230.402 452.991 230.484C452.794 230.566 452.576 230.587 452.366 230.546C452.156 230.504 451.963 230.401 451.811 230.249C451.66 230.098 451.557 229.905 451.515 229.695C451.473 229.485 451.495 229.268 451.577 229.07C451.659 228.872 451.797 228.703 451.976 228.585C452.154 228.466 452.363 228.402 452.577 228.402C452.719 228.402 452.86 228.43 452.992 228.485C453.123 228.539 453.242 228.619 453.343 228.719C453.444 228.82 453.523 228.939 453.578 229.07C453.632 229.202 453.66 229.342 453.66 229.484Z" fill="white"/>
<path d="M460.698 229.484C460.698 229.698 460.635 229.908 460.516 230.085C460.397 230.263 460.228 230.402 460.03 230.484C459.832 230.566 459.614 230.587 459.404 230.545C459.194 230.504 459.001 230.401 458.85 230.249C458.698 230.098 458.595 229.905 458.553 229.695C458.512 229.485 458.533 229.268 458.615 229.07C458.697 228.872 458.836 228.703 459.014 228.584C459.192 228.466 459.402 228.402 459.616 228.402C459.758 228.402 459.899 228.43 460.03 228.485C460.162 228.539 460.281 228.619 460.381 228.719C460.482 228.82 460.562 228.939 460.616 229.07C460.67 229.202 460.698 229.342 460.698 229.484Z" fill="white"/>
<path d="M168.779 231.139H167.515L166.989 234.355H165.427L165.953 231.139H164.21V229.703H166.189L166.534 227.632H164.799V226.197H166.769L167.311 222.933H168.866L168.332 226.197H169.596L170.137 222.933H171.7L171.158 226.197H172.971V227.632H170.922L170.577 229.703H172.375V231.139H170.342L169.815 234.355H168.253L168.779 231.139ZM167.751 229.703H169.015L169.36 227.632H168.096L167.751 229.703Z" fill="white"/>
<path d="M179.609 231.139H178.345L177.819 234.355H176.256L176.782 231.139H175.04V229.703H177.018L177.363 227.632H175.628V226.197H177.599L178.14 222.933H179.695L179.161 226.197H180.425L180.967 222.933H182.529L181.987 226.197H183.801V227.632H181.752L181.406 229.703H183.204V231.139H181.171L180.645 234.355H179.082L179.609 231.139ZM178.58 229.703H179.844L180.189 227.632H178.925L178.58 229.703Z" fill="white"/>
<path d="M190.437 231.139H189.173L188.647 234.355H187.085L187.611 231.139H185.868V229.703H187.847L188.192 227.632H186.457V226.197H188.427L188.969 222.933H190.523L189.99 226.197H191.254L191.795 222.933H193.357L192.816 226.197H194.629V227.632H192.58L192.235 229.703H194.033V231.139H191.999L191.473 234.355H189.911L190.437 231.139ZM189.408 229.703H190.673L191.018 227.632H189.754L189.408 229.703Z" fill="white"/>
</g>
<defs>
<clipPath id="clip0_1_234">
<rect width="713.861" height="513.535" fill="white" transform="translate(0.740234 0.516479)"/>
</clipPath>
</defs>
</svg>
