<svg xmlns="http://www.w3.org/2000/svg" xmlns:xlink="http://www.w3.org/1999/xlink" width="500" zoomAndPan="magnify" viewBox="0 0 375 374.999991" height="500" preserveAspectRatio="xMidYMid meet" version="1.0"><defs><g/></defs><rect x="-37.5" width="450" fill="#ffffff" y="-37.499999" height="449.999989" fill-opacity="1"/><rect x="-37.5" width="450" fill="#104911" y="-37.499999" height="449.999989" fill-opacity="1"/><g fill="#ffffff" fill-opacity="1"><g transform="translate(25.115767, 210.608115)"><g><path d="M 46.828125 -6.609375 C 41.722656 -2.359375 35.894531 -0.234375 29.34375 -0.234375 C 21.925781 -0.234375 15.582031 -2.867188 10.3125 -8.140625 C 5.050781 -13.410156 2.421875 -19.753906 2.421875 -27.171875 C 2.421875 -34.640625 5.050781 -41.003906 10.3125 -46.265625 C 15.582031 -51.535156 21.925781 -54.171875 29.34375 -54.171875 C 35.945312 -54.171875 41.773438 -52.019531 46.828125 -47.71875 L 38.765625 -39.734375 C 36.023438 -41.835938 32.882812 -42.890625 29.34375 -42.890625 C 25.039062 -42.890625 21.359375 -41.359375 18.296875 -38.296875 C 15.234375 -35.222656 13.703125 -31.515625 13.703125 -27.171875 C 13.703125 -22.867188 15.234375 -19.1875 18.296875 -16.125 C 21.359375 -13.0625 25.039062 -11.53125 29.34375 -11.53125 C 32.882812 -11.53125 36.023438 -12.578125 38.765625 -14.671875 Z M 46.828125 -6.609375 "/></g></g></g><g fill="#ffffff" fill-opacity="1"><g transform="translate(87.42173, 210.608115)"><g><path d="M 46.1875 -34.5 C 46.1875 -31.113281 45.328125 -27.96875 43.609375 -25.0625 C 41.515625 -21.625 38.5625 -19.234375 34.75 -17.890625 L 46.03125 0 L 31.921875 0 L 20.953125 -16.6875 L 15 -16.6875 L 15 0 L 2.421875 0 L 2.421875 -52.390625 L 27.484375 -52.390625 C 33.453125 -52.390625 38.179688 -50.429688 41.671875 -46.515625 C 44.679688 -43.078125 46.1875 -39.070312 46.1875 -34.5 Z M 15 -41.109375 L 15 -27.96875 L 27.40625 -27.96875 C 29.125 -27.96875 30.492188 -28.210938 31.515625 -28.703125 C 32.378906 -29.179688 33 -29.632812 33.375 -30.0625 C 33.90625 -30.707031 34.304688 -31.460938 34.578125 -32.328125 C 34.796875 -33.078125 34.90625 -33.800781 34.90625 -34.5 C 34.90625 -35.25 34.796875 -36.003906 34.578125 -36.765625 C 34.253906 -37.617188 33.800781 -38.367188 33.21875 -39.015625 C 32.03125 -40.410156 30.117188 -41.109375 27.484375 -41.109375 Z M 15 -41.109375 "/></g></g></g><g fill="#ffffff" fill-opacity="1"><g transform="translate(146.664831, 210.608115)"><g><path d="M 1.203125 -52.390625 L 13.78125 -52.390625 L 13.78125 0 L 1.203125 0 Z M 1.203125 -52.390625 "/></g></g></g><g fill="#ffffff" fill-opacity="1"><g transform="translate(172.297055, 210.608115)"><g><path d="M 23.78125 0.078125 C 20.226562 0.078125 17.109375 -0.429688 14.421875 -1.453125 C 12.273438 -2.304688 10.070312 -3.726562 7.8125 -5.71875 C 5.238281 -8.082031 3.601562 -11.015625 2.90625 -14.515625 C 2.632812 -15.640625 2.5 -16.765625 2.5 -17.890625 C 2.445312 -18.265625 2.445312 -18.644531 2.5 -19.03125 L 2.5 -19.59375 L 13.546875 -19.421875 L 13.546875 -19.5 C 13.546875 -17.519531 13.972656 -15.882812 14.828125 -14.59375 C 16.441406 -12.175781 19.425781 -10.96875 23.78125 -10.96875 C 30.769531 -10.96875 34.265625 -12.601562 34.265625 -15.875 C 34.265625 -19.050781 30.660156 -21.039062 23.453125 -21.84375 C 19.316406 -22.332031 15.769531 -23.191406 12.8125 -24.421875 C 10.070312 -25.554688 7.84375 -27.0625 6.125 -28.9375 C 3.707031 -31.625 2.5 -34.742188 2.5 -38.296875 C 2.5 -40.492188 2.898438 -42.5625 3.703125 -44.5 C 4.296875 -45.945312 5.101562 -47.265625 6.125 -48.453125 C 9.882812 -52.691406 15.847656 -54.8125 24.015625 -54.8125 C 28.910156 -54.8125 33.050781 -53.84375 36.4375 -51.90625 C 39.007812 -50.457031 41.101562 -48.523438 42.71875 -46.109375 C 43.90625 -44.285156 44.738281 -42.191406 45.21875 -39.828125 C 45.382812 -39.015625 45.492188 -38.207031 45.546875 -37.40625 C 45.597656 -37.132812 45.625 -36.863281 45.625 -36.59375 L 45.625 -36.109375 L 34.578125 -36.109375 L 34.578125 -36.03125 C 34.628906 -37.644531 34.226562 -39.015625 33.375 -40.140625 C 31.65625 -42.554688 28.535156 -43.765625 24.015625 -43.765625 C 21.273438 -43.765625 19.019531 -43.414062 17.25 -42.71875 C 15.050781 -41.863281 13.953125 -40.628906 13.953125 -39.015625 C 13.953125 -35.679688 17.523438 -33.613281 24.671875 -32.8125 C 32.734375 -31.894531 38.535156 -29.394531 42.078125 -25.3125 C 44.441406 -22.519531 45.625 -19.375 45.625 -15.875 L 45.625 -15.15625 C 45.625 -14.832031 45.597656 -14.507812 45.546875 -14.1875 C 45.492188 -13.320312 45.382812 -12.515625 45.21875 -11.765625 C 44.6875 -9.617188 43.664062 -7.710938 42.15625 -6.046875 C 40.382812 -4.054688 37.992188 -2.523438 34.984375 -1.453125 C 31.972656 -0.429688 28.238281 0.078125 23.78125 0.078125 Z M 23.78125 0.078125 "/></g></g></g><g fill="#ffffff" fill-opacity="1"><g transform="translate(230.975944, 210.608115)"><g><path d="M 27.5625 -52.390625 C 33.53125 -52.390625 38.257812 -50.429688 41.75 -46.515625 C 44.757812 -43.078125 46.265625 -39.070312 46.265625 -34.5 C 46.265625 -30.039062 44.867188 -26.144531 42.078125 -22.8125 C 38.585938 -18.726562 33.695312 -16.6875 27.40625 -16.6875 L 15 -16.6875 L 15 0 L 2.421875 0 L 2.421875 -52.390625 Z M 33.453125 -30.0625 C 33.992188 -30.707031 34.394531 -31.460938 34.65625 -32.328125 C 34.875 -33.078125 34.984375 -33.800781 34.984375 -34.5 C 34.984375 -35.195312 34.847656 -35.953125 34.578125 -36.765625 C 34.253906 -37.617188 33.828125 -38.367188 33.296875 -39.015625 C 32.054688 -40.410156 30.144531 -41.109375 27.5625 -41.109375 L 15 -41.109375 L 15 -27.96875 L 27.40625 -27.96875 C 29.070312 -27.96875 30.46875 -28.210938 31.59375 -28.703125 C 32.351562 -29.128906 32.972656 -29.582031 33.453125 -30.0625 Z M 33.453125 -30.0625 "/></g></g></g><g fill="#ffffff" fill-opacity="1"><g transform="translate(290.299641, 210.608115)"><g><path d="M 57.15625 -52.390625 L 36.03125 -27.078125 L 36.03125 0 L 23.453125 0 L 23.453125 -27.078125 L 2.421875 -52.390625 L 18.9375 -52.390625 L 29.828125 -39.25 L 40.625 -52.390625 Z M 57.15625 -52.390625 "/></g></g></g><g fill="#ffffff" fill-opacity="1"><g transform="translate(92.089057, 279.13271)"><g><path d="M 37.625 0 L 19.9375 -18.765625 L 14.421875 -13.1875 L 14.421875 0 L 2.328125 0 L 2.328125 -50.421875 L 14.421875 -50.421875 L 14.421875 -30.328125 L 34.515625 -50.421875 L 51.65625 -50.421875 L 28.546875 -27.375 L 54.765625 0 Z M 37.625 0 "/></g></g></g><g fill="#ffffff" fill-opacity="1"><g transform="translate(147.616417, 279.13271)"><g><path d="M 41.03125 0 L 37.390625 -7.0625 L 18.375 -7.0625 L 14.734375 0 L 0.78125 0 L 27.921875 -50.421875 L 54.984375 0 Z M 32.5 -16.515625 L 27.921875 -25.359375 L 23.265625 -16.515625 Z M 32.5 -16.515625 "/></g></g></g><g fill="#ffffff" fill-opacity="1"><g transform="translate(203.376426, 279.13271)"><g><path d="M 14.421875 -10.859375 L 38.703125 -10.859375 L 38.703125 0 L 2.328125 0 L 2.328125 -50.421875 L 14.421875 -50.421875 Z M 14.421875 -10.859375 "/></g></g></g><g fill="#ffffff" fill-opacity="1"><g transform="translate(243.005581, 279.13271)"><g><path d="M 14.421875 -19.78125 L 14.421875 -10.859375 L 37.546875 -10.859375 L 37.546875 0 L 2.328125 0 L 2.328125 -50.421875 L 37.546875 -50.421875 L 37.546875 -39.5625 L 14.421875 -39.5625 L 14.421875 -30.640625 L 34.046875 -30.640625 L 34.046875 -19.78125 Z M 14.421875 -19.78125 "/></g></g></g><g fill="#ffffff" fill-opacity="1"><g transform="translate(117.924837, 135.884444)"><g><path d="M 35.9375 -46.15625 L 35.9375 -33.609375 L 25.625 -33.609375 L 25.625 0 L 13.078125 0 L 13.078125 -33.609375 L 2.6875 -33.609375 L 2.6875 -46.15625 L 13.078125 -46.15625 L 13.078125 -62.28125 L 25.625 -62.28125 L 25.625 -46.15625 Z M 35.9375 -46.15625 "/></g></g></g><g fill="#ffffff" fill-opacity="1"><g transform="translate(156.539471, 135.884444)"><g><path d="M 49.734375 0 L 38.078125 0 L 38.078125 -22.765625 L 38 -22.765625 L 38 -23.03125 C 38 -26.132812 36.890625 -28.789062 34.671875 -31 C 32.460938 -33.21875 29.773438 -34.328125 26.609375 -34.328125 C 23.503906 -34.328125 20.816406 -33.191406 18.546875 -30.921875 C 16.273438 -28.648438 15.203125 -25.957031 15.328125 -22.84375 L 15.328125 -22.765625 L 15.234375 -22.765625 L 15.234375 0 L 2.6875 0 L 2.6875 -58.25 L 15.234375 -58.25 L 15.234375 -40.328125 C 18.035156 -43.671875 21.800781 -45.550781 26.53125 -45.96875 C 33.09375 -46.507812 38.523438 -44.804688 42.828125 -40.859375 C 47.429688 -36.617188 49.734375 -30.675781 49.734375 -23.03125 Z M 49.734375 0 "/></g></g></g><g fill="#ffffff" fill-opacity="1"><g transform="translate(208.951457, 135.884444)"><g><path d="M 47.140625 -21.0625 C 47.191406 -19.800781 47.191406 -19.050781 47.140625 -18.8125 L 13.4375 -18.90625 C 13.914062 -17.53125 14.785156 -16.21875 16.046875 -14.96875 C 18.367188 -12.757812 21.054688 -11.65625 24.109375 -11.65625 C 27.328125 -11.769531 30.015625 -12.898438 32.171875 -15.046875 L 32.53125 -15.40625 L 44.171875 -11.734375 C 41.609375 -7.734375 38.921875 -4.867188 36.109375 -3.140625 C 32.941406 -1.109375 28.96875 -0.0625 24.1875 0 C 17.863281 0.0625 12.429688 -2.144531 7.890625 -6.625 C 3.347656 -11.113281 1.046875 -16.550781 0.984375 -22.9375 C 0.921875 -29.269531 3.128906 -34.707031 7.609375 -39.25 C 12.097656 -43.789062 17.535156 -46.09375 23.921875 -46.15625 C 30.253906 -46.207031 35.691406 -43.992188 40.234375 -39.515625 C 44.773438 -35.035156 47.078125 -29.597656 47.140625 -23.203125 Z M 24.015625 -34.40625 C 20.847656 -34.40625 18.160156 -33.300781 15.953125 -31.09375 C 14.816406 -29.84375 14.007812 -28.585938 13.53125 -27.328125 L 34.59375 -27.328125 C 34.113281 -28.585938 33.273438 -29.875 32.078125 -31.1875 C 29.804688 -33.332031 27.117188 -34.40625 24.015625 -34.40625 Z M 24.015625 -34.40625 "/></g></g></g><g fill="#a6a6a6" fill-opacity="1"><g transform="translate(67.431313, 323.042306)"><g/></g></g><g fill="#a6a6a6" fill-opacity="1"><g transform="translate(72.094386, 323.042306)"><g><path d="M 4.8125 -4.96875 L 0.34375 -4.96875 L 0.34375 -6.359375 L 4.8125 -6.359375 Z M 4.8125 -4.96875 "/></g></g></g><g fill="#a6a6a6" fill-opacity="1"><g transform="translate(77.268757, 323.042306)"><g/></g></g><g fill="#a6a6a6" fill-opacity="1"><g transform="translate(81.911955, 323.042306)"><g><path d="M 5.484375 -5.953125 C 3.972656 -6.378906 2.875 -6.910156 2.1875 -7.546875 C 1.5 -8.179688 1.15625 -8.960938 1.15625 -9.890625 C 1.15625 -10.941406 1.570312 -11.8125 2.40625 -12.5 C 3.25 -13.1875 4.34375 -13.53125 5.6875 -13.53125 C 6.601562 -13.53125 7.421875 -13.351562 8.140625 -13 C 8.859375 -12.644531 9.414062 -12.15625 9.8125 -11.53125 C 10.207031 -10.90625 10.40625 -10.222656 10.40625 -9.484375 L 8.625 -9.484375 C 8.625 -10.285156 8.367188 -10.914062 7.859375 -11.375 C 7.347656 -11.84375 6.625 -12.078125 5.6875 -12.078125 C 4.820312 -12.078125 4.144531 -11.882812 3.65625 -11.5 C 3.175781 -11.125 2.9375 -10.597656 2.9375 -9.921875 C 2.9375 -9.367188 3.164062 -8.90625 3.625 -8.53125 C 4.082031 -8.15625 4.863281 -7.8125 5.96875 -7.5 C 7.082031 -7.1875 7.953125 -6.84375 8.578125 -6.46875 C 9.203125 -6.09375 9.664062 -5.65625 9.96875 -5.15625 C 10.269531 -4.65625 10.421875 -4.066406 10.421875 -3.390625 C 10.421875 -2.304688 10 -1.4375 9.15625 -0.78125 C 8.3125 -0.132812 7.1875 0.1875 5.78125 0.1875 C 4.863281 0.1875 4.007812 0.0078125 3.21875 -0.34375 C 2.425781 -0.695312 1.8125 -1.175781 1.375 -1.78125 C 0.945312 -2.394531 0.734375 -3.085938 0.734375 -3.859375 L 2.5 -3.859375 C 2.5 -3.054688 2.796875 -2.421875 3.390625 -1.953125 C 3.984375 -1.484375 4.78125 -1.25 5.78125 -1.25 C 6.707031 -1.25 7.414062 -1.4375 7.90625 -1.8125 C 8.40625 -2.195312 8.65625 -2.71875 8.65625 -3.375 C 8.65625 -4.03125 8.425781 -4.535156 7.96875 -4.890625 C 7.507812 -5.242188 6.679688 -5.597656 5.484375 -5.953125 Z M 5.484375 -5.953125 "/></g></g></g><g fill="#a6a6a6" fill-opacity="1"><g transform="translate(93.039131, 323.042306)"><g><path d="M 10.765625 -11.890625 L 6.484375 -11.890625 L 6.484375 0 L 4.734375 0 L 4.734375 -11.890625 L 0.453125 -11.890625 L 0.453125 -13.34375 L 10.765625 -13.34375 Z M 10.765625 -11.890625 "/></g></g></g><g fill="#a6a6a6" fill-opacity="1"><g transform="translate(104.230405, 323.042306)"><g><path d="M 11.8125 -6.234375 C 11.8125 -4.929688 11.585938 -3.789062 11.140625 -2.8125 C 10.703125 -1.84375 10.082031 -1.097656 9.28125 -0.578125 C 8.476562 -0.0664062 7.535156 0.1875 6.453125 0.1875 C 5.410156 0.1875 4.484375 -0.0664062 3.671875 -0.578125 C 2.859375 -1.097656 2.222656 -1.835938 1.765625 -2.796875 C 1.316406 -3.753906 1.085938 -4.863281 1.078125 -6.125 L 1.078125 -7.078125 C 1.078125 -8.359375 1.300781 -9.488281 1.75 -10.46875 C 2.195312 -11.457031 2.828125 -12.210938 3.640625 -12.734375 C 4.453125 -13.265625 5.382812 -13.53125 6.4375 -13.53125 C 7.507812 -13.53125 8.453125 -13.269531 9.265625 -12.75 C 10.078125 -12.226562 10.703125 -11.476562 11.140625 -10.5 C 11.585938 -9.519531 11.8125 -8.378906 11.8125 -7.078125 Z M 10.0625 -7.09375 C 10.0625 -8.675781 9.742188 -9.890625 9.109375 -10.734375 C 8.472656 -11.585938 7.582031 -12.015625 6.4375 -12.015625 C 5.332031 -12.015625 4.457031 -11.585938 3.8125 -10.734375 C 3.175781 -9.890625 2.847656 -8.71875 2.828125 -7.21875 L 2.828125 -6.234375 C 2.828125 -4.703125 3.148438 -3.5 3.796875 -2.625 C 4.441406 -1.75 5.328125 -1.3125 6.453125 -1.3125 C 7.597656 -1.3125 8.476562 -1.722656 9.09375 -2.546875 C 9.71875 -3.378906 10.039062 -4.566406 10.0625 -6.109375 Z M 10.0625 -7.09375 "/></g></g></g><g fill="#a6a6a6" fill-opacity="1"><g transform="translate(117.125096, 323.042306)"><g><path d="M 11.359375 -4.234375 C 11.191406 -2.816406 10.671875 -1.722656 9.796875 -0.953125 C 8.921875 -0.191406 7.753906 0.1875 6.296875 0.1875 C 4.722656 0.1875 3.460938 -0.375 2.515625 -1.5 C 1.566406 -2.632812 1.09375 -4.148438 1.09375 -6.046875 L 1.09375 -7.328125 C 1.09375 -8.566406 1.3125 -9.65625 1.75 -10.59375 C 2.195312 -11.539062 2.828125 -12.265625 3.640625 -12.765625 C 4.453125 -13.273438 5.390625 -13.53125 6.453125 -13.53125 C 7.867188 -13.53125 9.003906 -13.132812 9.859375 -12.34375 C 10.722656 -11.550781 11.222656 -10.453125 11.359375 -9.046875 L 9.59375 -9.046875 C 9.4375 -10.109375 9.101562 -10.878906 8.59375 -11.359375 C 8.082031 -11.835938 7.367188 -12.078125 6.453125 -12.078125 C 5.335938 -12.078125 4.457031 -11.660156 3.8125 -10.828125 C 3.175781 -9.992188 2.859375 -8.8125 2.859375 -7.28125 L 2.859375 -6 C 2.859375 -4.550781 3.160156 -3.394531 3.765625 -2.53125 C 4.367188 -1.675781 5.210938 -1.25 6.296875 -1.25 C 7.273438 -1.25 8.023438 -1.46875 8.546875 -1.90625 C 9.078125 -2.351562 9.425781 -3.128906 9.59375 -4.234375 Z M 11.359375 -4.234375 "/></g></g></g><g fill="#a6a6a6" fill-opacity="1"><g transform="translate(129.332936, 323.042306)"><g><path d="M 4.9375 -6.203125 L 3.3125 -4.515625 L 3.3125 0 L 1.546875 0 L 1.546875 -13.34375 L 3.3125 -13.34375 L 3.3125 -6.75 L 9.234375 -13.34375 L 11.359375 -13.34375 L 6.109375 -7.453125 L 11.78125 0 L 9.671875 0 Z M 4.9375 -6.203125 "/></g></g></g><g fill="#a6a6a6" fill-opacity="1"><g transform="translate(141.092015, 323.042306)"><g><path d="M 11.796875 0 L 10.03125 0 L 10.03125 -6.171875 L 3.3125 -6.171875 L 3.3125 0 L 1.546875 0 L 1.546875 -13.34375 L 3.3125 -13.34375 L 3.3125 -7.609375 L 10.03125 -7.609375 L 10.03125 -13.34375 L 11.796875 -13.34375 Z M 11.796875 0 "/></g></g></g><g fill="#a6a6a6" fill-opacity="1"><g transform="translate(154.462931, 323.042306)"><g><path d="M 11.8125 -6.234375 C 11.8125 -4.929688 11.585938 -3.789062 11.140625 -2.8125 C 10.703125 -1.84375 10.082031 -1.097656 9.28125 -0.578125 C 8.476562 -0.0664062 7.535156 0.1875 6.453125 0.1875 C 5.410156 0.1875 4.484375 -0.0664062 3.671875 -0.578125 C 2.859375 -1.097656 2.222656 -1.835938 1.765625 -2.796875 C 1.316406 -3.753906 1.085938 -4.863281 1.078125 -6.125 L 1.078125 -7.078125 C 1.078125 -8.359375 1.300781 -9.488281 1.75 -10.46875 C 2.195312 -11.457031 2.828125 -12.210938 3.640625 -12.734375 C 4.453125 -13.265625 5.382812 -13.53125 6.4375 -13.53125 C 7.507812 -13.53125 8.453125 -13.269531 9.265625 -12.75 C 10.078125 -12.226562 10.703125 -11.476562 11.140625 -10.5 C 11.585938 -9.519531 11.8125 -8.378906 11.8125 -7.078125 Z M 10.0625 -7.09375 C 10.0625 -8.675781 9.742188 -9.890625 9.109375 -10.734375 C 8.472656 -11.585938 7.582031 -12.015625 6.4375 -12.015625 C 5.332031 -12.015625 4.457031 -11.585938 3.8125 -10.734375 C 3.175781 -9.890625 2.847656 -8.71875 2.828125 -7.21875 L 2.828125 -6.234375 C 2.828125 -4.703125 3.148438 -3.5 3.796875 -2.625 C 4.441406 -1.75 5.328125 -1.3125 6.453125 -1.3125 C 7.597656 -1.3125 8.476562 -1.722656 9.09375 -2.546875 C 9.71875 -3.378906 10.039062 -4.566406 10.0625 -6.109375 Z M 10.0625 -7.09375 "/></g></g></g><g fill="#a6a6a6" fill-opacity="1"><g transform="translate(167.357622, 323.042306)"><g><path d="M 3.3125 -1.4375 L 9.640625 -1.4375 L 9.640625 0 L 1.546875 0 L 1.546875 -13.34375 L 3.3125 -13.34375 Z M 3.3125 -1.4375 "/></g></g></g><g fill="#a6a6a6" fill-opacity="1"><g transform="translate(177.449916, 323.042306)"><g><path d="M 3.828125 -13.34375 L 8.1875 -2.453125 L 12.546875 -13.34375 L 14.828125 -13.34375 L 14.828125 0 L 13.0625 0 L 13.0625 -5.203125 L 13.234375 -10.796875 L 8.84375 0 L 7.5 0 L 3.140625 -10.78125 L 3.3125 -5.203125 L 3.3125 0 L 1.546875 0 L 1.546875 -13.34375 Z M 3.828125 -13.34375 "/></g></g></g><g fill="#a6a6a6" fill-opacity="1"><g transform="translate(193.824709, 323.042306)"><g/></g></g><g fill="#a6a6a6" fill-opacity="1"><g transform="translate(198.467907, 323.042306)"><g><path d="M 5.484375 -5.953125 C 3.972656 -6.378906 2.875 -6.910156 2.1875 -7.546875 C 1.5 -8.179688 1.15625 -8.960938 1.15625 -9.890625 C 1.15625 -10.941406 1.570312 -11.8125 2.40625 -12.5 C 3.25 -13.1875 4.34375 -13.53125 5.6875 -13.53125 C 6.601562 -13.53125 7.421875 -13.351562 8.140625 -13 C 8.859375 -12.644531 9.414062 -12.15625 9.8125 -11.53125 C 10.207031 -10.90625 10.40625 -10.222656 10.40625 -9.484375 L 8.625 -9.484375 C 8.625 -10.285156 8.367188 -10.914062 7.859375 -11.375 C 7.347656 -11.84375 6.625 -12.078125 5.6875 -12.078125 C 4.820312 -12.078125 4.144531 -11.882812 3.65625 -11.5 C 3.175781 -11.125 2.9375 -10.597656 2.9375 -9.921875 C 2.9375 -9.367188 3.164062 -8.90625 3.625 -8.53125 C 4.082031 -8.15625 4.863281 -7.8125 5.96875 -7.5 C 7.082031 -7.1875 7.953125 -6.84375 8.578125 -6.46875 C 9.203125 -6.09375 9.664062 -5.65625 9.96875 -5.15625 C 10.269531 -4.65625 10.421875 -4.066406 10.421875 -3.390625 C 10.421875 -2.304688 10 -1.4375 9.15625 -0.78125 C 8.3125 -0.132812 7.1875 0.1875 5.78125 0.1875 C 4.863281 0.1875 4.007812 0.0078125 3.21875 -0.34375 C 2.425781 -0.695312 1.8125 -1.175781 1.375 -1.78125 C 0.945312 -2.394531 0.734375 -3.085938 0.734375 -3.859375 L 2.5 -3.859375 C 2.5 -3.054688 2.796875 -2.421875 3.390625 -1.953125 C 3.984375 -1.484375 4.78125 -1.25 5.78125 -1.25 C 6.707031 -1.25 7.414062 -1.4375 7.90625 -1.8125 C 8.40625 -2.195312 8.65625 -2.71875 8.65625 -3.375 C 8.65625 -4.03125 8.425781 -4.535156 7.96875 -4.890625 C 7.507812 -5.242188 6.679688 -5.597656 5.484375 -5.953125 Z M 5.484375 -5.953125 "/></g></g></g><g fill="#a6a6a6" fill-opacity="1"><g transform="translate(209.595084, 323.042306)"><g><path d="M 3.4375 0 L 1.671875 0 L 1.671875 -13.34375 L 3.4375 -13.34375 Z M 3.4375 0 "/></g></g></g><g fill="#a6a6a6" fill-opacity="1"><g transform="translate(214.69619, 323.042306)"><g><path d="M 11.796875 0 L 10.03125 0 L 3.3125 -10.28125 L 3.3125 0 L 1.546875 0 L 1.546875 -13.34375 L 3.3125 -13.34375 L 10.046875 -3.015625 L 10.046875 -13.34375 L 11.796875 -13.34375 Z M 11.796875 0 "/></g></g></g><g fill="#a6a6a6" fill-opacity="1"><g transform="translate(228.067106, 323.042306)"><g><path d="M 11.359375 -4.234375 C 11.191406 -2.816406 10.671875 -1.722656 9.796875 -0.953125 C 8.921875 -0.191406 7.753906 0.1875 6.296875 0.1875 C 4.722656 0.1875 3.460938 -0.375 2.515625 -1.5 C 1.566406 -2.632812 1.09375 -4.148438 1.09375 -6.046875 L 1.09375 -7.328125 C 1.09375 -8.566406 1.3125 -9.65625 1.75 -10.59375 C 2.195312 -11.539062 2.828125 -12.265625 3.640625 -12.765625 C 4.453125 -13.273438 5.390625 -13.53125 6.453125 -13.53125 C 7.867188 -13.53125 9.003906 -13.132812 9.859375 -12.34375 C 10.722656 -11.550781 11.222656 -10.453125 11.359375 -9.046875 L 9.59375 -9.046875 C 9.4375 -10.109375 9.101562 -10.878906 8.59375 -11.359375 C 8.082031 -11.835938 7.367188 -12.078125 6.453125 -12.078125 C 5.335938 -12.078125 4.457031 -11.660156 3.8125 -10.828125 C 3.175781 -9.992188 2.859375 -8.8125 2.859375 -7.28125 L 2.859375 -6 C 2.859375 -4.550781 3.160156 -3.394531 3.765625 -2.53125 C 4.367188 -1.675781 5.210938 -1.25 6.296875 -1.25 C 7.273438 -1.25 8.023438 -1.46875 8.546875 -1.90625 C 9.078125 -2.351562 9.425781 -3.128906 9.59375 -4.234375 Z M 11.359375 -4.234375 "/></g></g></g><g fill="#a6a6a6" fill-opacity="1"><g transform="translate(240.274945, 323.042306)"><g><path d="M 9.09375 -6.171875 L 3.3125 -6.171875 L 3.3125 -1.4375 L 10.03125 -1.4375 L 10.03125 0 L 1.546875 0 L 1.546875 -13.34375 L 9.9375 -13.34375 L 9.9375 -11.890625 L 3.3125 -11.890625 L 3.3125 -7.609375 L 9.09375 -7.609375 Z M 9.09375 -6.171875 "/></g></g></g><g fill="#a6a6a6" fill-opacity="1"><g transform="translate(250.935045, 323.042306)"><g/></g></g><g fill="#a6a6a6" fill-opacity="1"><g transform="translate(255.578243, 323.042306)"><g><path d="M 9.84375 0 L 1.109375 0 L 1.109375 -1.21875 L 5.734375 -6.34375 C 6.410156 -7.125 6.878906 -7.753906 7.140625 -8.234375 C 7.398438 -8.722656 7.53125 -9.226562 7.53125 -9.75 C 7.53125 -10.445312 7.316406 -11.015625 6.890625 -11.453125 C 6.472656 -11.898438 5.914062 -12.125 5.21875 -12.125 C 4.375 -12.125 3.71875 -11.882812 3.25 -11.40625 C 2.78125 -10.925781 2.546875 -10.257812 2.546875 -9.40625 L 0.859375 -9.40625 C 0.859375 -10.632812 1.25 -11.628906 2.03125 -12.390625 C 2.820312 -13.148438 3.882812 -13.53125 5.21875 -13.53125 C 6.457031 -13.53125 7.4375 -13.203125 8.15625 -12.546875 C 8.875 -11.898438 9.234375 -11.035156 9.234375 -9.953125 C 9.234375 -8.640625 8.394531 -7.078125 6.71875 -5.265625 L 3.15625 -1.390625 L 9.84375 -1.390625 Z M 9.84375 0 "/></g></g></g><g fill="#a6a6a6" fill-opacity="1"><g transform="translate(266.110129, 323.042306)"><g><path d="M 9.46875 -5.6875 C 9.46875 -3.707031 9.128906 -2.234375 8.453125 -1.265625 C 7.773438 -0.296875 6.71875 0.1875 5.28125 0.1875 C 3.851562 0.1875 2.796875 -0.28125 2.109375 -1.21875 C 1.429688 -2.164062 1.078125 -3.582031 1.046875 -5.46875 L 1.046875 -7.71875 C 1.046875 -9.6875 1.382812 -11.144531 2.0625 -12.09375 C 2.75 -13.050781 3.816406 -13.53125 5.265625 -13.53125 C 6.691406 -13.53125 7.742188 -13.066406 8.421875 -12.140625 C 9.109375 -11.222656 9.457031 -9.804688 9.46875 -7.890625 Z M 7.78125 -8.015625 C 7.78125 -9.441406 7.578125 -10.484375 7.171875 -11.140625 C 6.765625 -11.796875 6.128906 -12.125 5.265625 -12.125 C 4.390625 -12.125 3.753906 -11.796875 3.359375 -11.140625 C 2.960938 -10.492188 2.757812 -9.492188 2.75 -8.140625 L 2.75 -5.421875 C 2.75 -3.984375 2.957031 -2.921875 3.375 -2.234375 C 3.789062 -1.546875 4.425781 -1.203125 5.28125 -1.203125 C 6.113281 -1.203125 6.734375 -1.523438 7.140625 -2.171875 C 7.546875 -2.816406 7.757812 -3.835938 7.78125 -5.234375 Z M 7.78125 -8.015625 "/></g></g></g><g fill="#a6a6a6" fill-opacity="1"><g transform="translate(276.642015, 323.042306)"><g><path d="M 9.84375 0 L 1.109375 0 L 1.109375 -1.21875 L 5.734375 -6.34375 C 6.410156 -7.125 6.878906 -7.753906 7.140625 -8.234375 C 7.398438 -8.722656 7.53125 -9.226562 7.53125 -9.75 C 7.53125 -10.445312 7.316406 -11.015625 6.890625 -11.453125 C 6.472656 -11.898438 5.914062 -12.125 5.21875 -12.125 C 4.375 -12.125 3.71875 -11.882812 3.25 -11.40625 C 2.78125 -10.925781 2.546875 -10.257812 2.546875 -9.40625 L 0.859375 -9.40625 C 0.859375 -10.632812 1.25 -11.628906 2.03125 -12.390625 C 2.820312 -13.148438 3.882812 -13.53125 5.21875 -13.53125 C 6.457031 -13.53125 7.4375 -13.203125 8.15625 -12.546875 C 8.875 -11.898438 9.234375 -11.035156 9.234375 -9.953125 C 9.234375 -8.640625 8.394531 -7.078125 6.71875 -5.265625 L 3.15625 -1.390625 L 9.84375 -1.390625 Z M 9.84375 0 "/></g></g></g><g fill="#a6a6a6" fill-opacity="1"><g transform="translate(287.173901, 323.042306)"><g><path d="M 1.890625 -6.6875 L 2.5625 -13.34375 L 9.40625 -13.34375 L 9.40625 -11.78125 L 4 -11.78125 L 3.59375 -8.140625 C 4.25 -8.523438 4.992188 -8.71875 5.828125 -8.71875 C 7.046875 -8.71875 8.007812 -8.3125 8.71875 -7.5 C 9.4375 -6.695312 9.796875 -5.613281 9.796875 -4.25 C 9.796875 -2.875 9.421875 -1.789062 8.671875 -1 C 7.929688 -0.207031 6.898438 0.1875 5.578125 0.1875 C 4.390625 0.1875 3.421875 -0.140625 2.671875 -0.796875 C 1.929688 -1.453125 1.507812 -2.359375 1.40625 -3.515625 L 3.015625 -3.515625 C 3.117188 -2.742188 3.390625 -2.164062 3.828125 -1.78125 C 4.265625 -1.394531 4.847656 -1.203125 5.578125 -1.203125 C 6.359375 -1.203125 6.972656 -1.46875 7.421875 -2 C 7.867188 -2.539062 8.09375 -3.285156 8.09375 -4.234375 C 8.09375 -5.128906 7.847656 -5.84375 7.359375 -6.375 C 6.878906 -6.914062 6.238281 -7.1875 5.4375 -7.1875 C 4.695312 -7.1875 4.113281 -7.023438 3.6875 -6.703125 L 3.25 -6.34375 Z M 1.890625 -6.6875 "/></g></g></g><g fill="#a6a6a6" fill-opacity="1"><g transform="translate(297.705787, 323.042306)"><g/></g></g><g fill="#a6a6a6" fill-opacity="1"><g transform="translate(302.348985, 323.042306)"><g><path d="M 4.8125 -4.96875 L 0.34375 -4.96875 L 0.34375 -6.359375 L 4.8125 -6.359375 Z M 4.8125 -4.96875 "/></g></g></g></svg>